<svg width="221" height="584" viewBox="0 0 221 584" fill="none" xmlns="http://www.w3.org/2000/svg">
<g filter="url(#filter0_d_325_114)">
<path d="M78.3627 573.695L98.4456 577H118V3L99.5026 18.975L89.9896 34.9501L102.145 59.1881H98.4456L51.4093 43.7639L77.3057 100.503H98.4456L83.1192 105.461H78.8912L73.6062 108.215H66.2073L58.2798 115.927H51.9378L46.6529 124.19L40.3109 119.783L78.8912 202.964L77.3057 204.065L73.6062 205.718L68.8497 204.616L65.1503 202.964L60.3938 199.107L70.9637 231.608L65.1503 233.812L60.3938 236.566V241.524L54.5803 243.727L50.8808 245.931L40.3109 236.566L48.2383 263.008L52.9948 267.965L60.3938 271.822L68.3212 274.576L77.3057 276.228H84.7047L85.7617 288.347L87.3472 297.712V330.213L85.7617 351.697L81.5337 374.282L78.8912 385.85L75.7202 396.868L71.4922 408.987L68.8497 416.148L61.4508 418.902L55.6373 421.656L46.6529 416.148L51.4093 443.14L52.9948 446.996V451.403L45.0674 461.319L37.6684 468.48L28.1554 477.294L19.6995 488.311L16 496.574V539.541L18.114 544.499L28.1554 554.415L40.3109 562.127L55.6373 567.635L78.3627 573.695Z" fill="#040404"/>
<path d="M61.4508 418.902L55.6373 421.656L46.6529 416.148L51.4093 443.14L52.9948 446.996V451.403L45.0674 461.319L37.6684 468.48L28.1554 477.294L19.6995 488.311L16 496.574V539.541L18.114 544.499L28.1554 554.415L40.3109 562.127L55.6373 567.635L78.3627 573.695L98.4456 577H118V3L99.5026 18.975L89.9896 34.9501L102.145 59.1881H98.4456L51.4093 43.7639L77.3057 100.503H98.4456L83.1192 105.461H78.8912L73.6062 108.215H66.2073L58.2798 115.927H51.9378L46.6529 124.19L40.3109 119.783L78.8912 202.964L77.3057 204.065L73.6062 205.718L68.8497 204.616L65.1503 202.964L60.3938 199.107L70.9637 231.608L65.1503 233.812L60.3938 236.566V241.524L54.5803 243.727L50.8808 245.931L40.3109 236.566L48.2383 263.008L52.9948 267.965L60.3938 271.822L68.3212 274.576L77.3057 276.228H84.7047L85.7617 288.347L87.3472 297.712V330.213L85.7617 351.697L81.5337 374.282L78.8912 385.85L75.7202 396.868L71.4922 408.987L68.8497 416.148M61.4508 418.902C61.4508 418.902 65.9603 417.223 68.8497 416.148M61.4508 418.902L68.8497 416.148" stroke="#040404" stroke-width="0.5"/>
<path d="M157.637 573.695L137.554 577H118V3L136.497 18.975L146.01 34.9501L133.855 59.1881H137.554L184.591 43.7639L158.694 100.503H137.554L152.881 105.461H157.109L162.394 108.215H169.793L177.72 115.927H184.062L189.347 124.19L195.689 119.783L157.109 202.964L158.694 204.065L162.394 205.718L167.15 204.616L170.85 202.964L175.606 199.107L165.036 231.608L170.85 233.812L175.606 236.566V241.524L181.42 243.727L185.119 245.931L195.689 236.566L187.762 263.008L183.005 267.965L175.606 271.822L167.679 274.576L158.694 276.228H151.295L150.238 288.347L148.653 297.712V330.213L150.238 351.697L154.466 374.282L157.109 385.85L160.28 396.868L164.508 408.987L167.15 416.148L174.549 418.902L180.363 421.656L189.347 416.148L184.591 443.14L183.005 446.996V451.403L190.933 461.319L198.332 468.48L207.845 477.294L216.301 488.311L220 496.574V539.541L217.886 544.499L207.845 554.415L195.689 562.127L180.363 567.635L157.637 573.695Z" fill="#171515"/>
<path d="M174.549 418.902L180.363 421.656L189.347 416.148L184.591 443.14L183.005 446.996V451.403L190.933 461.319L198.332 468.48L207.845 477.294L216.301 488.311L220 496.574V539.541L217.886 544.499L207.845 554.415L195.689 562.127L180.363 567.635L157.637 573.695L137.554 577H118V3L136.497 18.975L146.01 34.9501L133.855 59.1881H137.554L184.591 43.7639L158.694 100.503H137.554L152.881 105.461H157.109L162.394 108.215H169.793L177.72 115.927H184.062L189.347 124.19L195.689 119.783L157.109 202.964L158.694 204.065L162.394 205.718L167.15 204.616L170.85 202.964L175.606 199.107L165.036 231.608L170.85 233.812L175.606 236.566V241.524L181.42 243.727L185.119 245.931L195.689 236.566L187.762 263.008L183.005 267.965L175.606 271.822L167.679 274.576L158.694 276.228H151.295L150.238 288.347L148.653 297.712V330.213L150.238 351.697L154.466 374.282L157.109 385.85L160.28 396.868L164.508 408.987L167.15 416.148M174.549 418.902C174.549 418.902 170.04 417.223 167.15 416.148M174.549 418.902L167.15 416.148" stroke="#171515" stroke-width="0.5"/>
</g>
<defs>
<filter id="filter0_d_325_114" x="0.75" y="0.453735" width="219.5" height="582.796" filterUnits="userSpaceOnUse" color-interpolation-filters="sRGB">
<feFlood flood-opacity="0" result="BackgroundImageFix"/>
<feColorMatrix in="SourceAlpha" type="matrix" values="0 0 0 0 0 0 0 0 0 0 0 0 0 0 0 0 0 0 127 0" result="hardAlpha"/>
<feOffset dx="-11" dy="2"/>
<feGaussianBlur stdDeviation="2"/>
<feComposite in2="hardAlpha" operator="out"/>
<feColorMatrix type="matrix" values="0 0 0 0 0 0 0 0 0 0 0 0 0 0 0 0 0 0 0.25 0"/>
<feBlend mode="normal" in2="BackgroundImageFix" result="effect1_dropShadow_325_114"/>
<feBlend mode="normal" in="SourceGraphic" in2="effect1_dropShadow_325_114" result="shape"/>
</filter>
</defs>
</svg>
