<svg width="387" height="620" viewBox="0 0 387 620" fill="none" xmlns="http://www.w3.org/2000/svg">
<g filter="url(#filter0_d_307_47)">
<path d="M244.363 572.695L264.446 576H284V2L265.503 17.975L255.99 33.9501L268.145 58.1881H264.446L217.409 42.7639L243.306 99.5029H264.446L249.119 104.461H244.891L239.606 107.215H232.207L224.28 114.927H217.938L212.653 123.19L206.311 118.783L244.891 201.964L243.306 203.065L239.606 204.718L234.85 203.616L231.15 201.964L226.394 198.107L236.964 230.608L231.15 232.812L226.394 235.566V240.524L220.58 242.727L216.881 244.931L206.311 235.566L214.238 262.008L218.995 266.965L226.394 270.822L234.321 273.576L243.306 275.228H250.705L251.762 287.347L253.347 296.712V329.213L251.762 350.697L247.534 373.282L244.891 384.85L241.72 395.868L237.492 407.987L234.85 415.148L227.451 417.902L221.637 420.656L212.653 415.148L217.409 442.14L218.995 445.996V450.403L211.067 460.319L203.668 467.48L194.155 476.294L185.699 487.311L182 495.574V538.541L184.114 543.499L194.155 553.415L206.311 561.127L221.637 566.635L244.363 572.695Z" fill="#040404"/>
<path d="M227.451 417.902L221.637 420.656L212.653 415.148L217.409 442.14L218.995 445.996V450.403L211.067 460.319L203.668 467.48L194.155 476.294L185.699 487.311L182 495.574V538.541L184.114 543.499L194.155 553.415L206.311 561.127L221.637 566.635L244.363 572.695L264.446 576H284V2L265.503 17.975L255.99 33.9501L268.145 58.1881H264.446L217.409 42.7639L243.306 99.5029H264.446L249.119 104.461H244.891L239.606 107.215H232.207L224.28 114.927H217.938L212.653 123.19L206.311 118.783L244.891 201.964L243.306 203.065L239.606 204.718L234.85 203.616L231.15 201.964L226.394 198.107L236.964 230.608L231.15 232.812L226.394 235.566V240.524L220.58 242.727L216.881 244.931L206.311 235.566L214.238 262.008L218.995 266.965L226.394 270.822L234.321 273.576L243.306 275.228H250.705L251.762 287.347L253.347 296.712V329.213L251.762 350.697L247.534 373.282L244.891 384.85L241.72 395.868L237.492 407.987L234.85 415.148M227.451 417.902C227.451 417.902 231.96 416.223 234.85 415.148M227.451 417.902L234.85 415.148" stroke="black"/>
<path d="M323.637 572.695L303.554 576H284V2L302.497 17.975L312.01 33.9501L299.855 58.1881H303.554L350.591 42.7639L324.694 99.5029H303.554L318.881 104.461H323.109L328.394 107.215H335.793L343.72 114.927H350.062L355.347 123.19L361.689 118.783L323.109 201.964L324.694 203.065L328.394 204.718L333.15 203.616L336.85 201.964L341.606 198.107L331.036 230.608L336.85 232.812L341.606 235.566V240.524L347.42 242.727L351.119 244.931L361.689 235.566L353.762 262.008L349.005 266.965L341.606 270.822L333.679 273.576L324.694 275.228H317.295L316.238 287.347L314.653 296.712V329.213L316.238 350.697L320.466 373.282L323.109 384.85L326.28 395.868L330.508 407.987L333.15 415.148L340.549 417.902L346.363 420.656L355.347 415.148L350.591 442.14L349.005 445.996V450.403L356.933 460.319L364.332 467.48L373.845 476.294L382.301 487.311L386 495.574V538.541L383.886 543.499L373.845 553.415L361.689 561.127L346.363 566.635L323.637 572.695Z" fill="#171515"/>
<path d="M340.549 417.902L346.363 420.656L355.347 415.148L350.591 442.14L349.005 445.996V450.403L356.933 460.319L364.332 467.48L373.845 476.294L382.301 487.311L386 495.574V538.541L383.886 543.499L373.845 553.415L361.689 561.127L346.363 566.635L323.637 572.695L303.554 576H284V2L302.497 17.975L312.01 33.9501L299.855 58.1881H303.554L350.591 42.7639L324.694 99.5029H303.554L318.881 104.461H323.109L328.394 107.215H335.793L343.72 114.927H350.062L355.347 123.19L361.689 118.783L323.109 201.964L324.694 203.065L328.394 204.718L333.15 203.616L336.85 201.964L341.606 198.107L331.036 230.608L336.85 232.812L341.606 235.566V240.524L347.42 242.727L351.119 244.931L361.689 235.566L353.762 262.008L349.005 266.965L341.606 270.822L333.679 273.576L324.694 275.228H317.295L316.238 287.347L314.653 296.712V329.213L316.238 350.697L320.466 373.282L323.109 384.85L326.28 395.868L330.508 407.987L333.15 415.148M340.549 417.902C340.549 417.902 336.04 416.223 333.15 415.148M340.549 417.902L333.15 415.148" stroke="black"/>
<path d="M118.5 609.5L139.5 610H141.5V597V75H139L135.5 75.5L132.5 76.5L129.5 78L127.5 80L126 82.5L125.5 86V90.5L126 93.5L127.5 96L130 98.5L131 99.5L130.5 100L125 102L120 104.5L115 108.5L110 113.5L107 118L104.5 123H99.5L92.5 121.5L87.5 124L84.5 123H80.5L73.5 121.5L66.5 118L57.5 121.5L76 135L80.5 139L83.5 142.5L88 148.5L92.5 155.5L94.5 159.5L96.5 168.5L97.5 175.5L98 181.5L97.5 185.5L95 186.5L92.5 189V191.5L95 194.5L97.5 196.5L96.5 199.5V204.5L97.5 207L90 207.5L87 208.5L85 210V213L86 216.5L87 220L87.5 223H86L82 223.5L69 233L79 240L85.5 245.5L96.5 247.5L101 249L102.5 251.5L103.5 254L101 257L104.5 283.5L107 297V352V357.5L104.5 372.5L101 390L97 405.5L91.5 423L87 436L81 448L78.5 453.5L79 455.5L82.5 460H67.5V462.5L68.5 465.5L70.5 469.5L71.5 474.5V480L69.5 486.5L64.5 495L59.5 502L48.5 512.5L36.5 525L32.5 530.5L31.5 535.5V544L32.5 548L36.5 552.5L38.5 556.5L38 558.5L36.5 560L17.5 571L16 572.5V575L23.5 584.5L35 597L45 601.5L58 605L86.5 608L118.5 609.5Z" fill="#040404" stroke="black"/>
<path d="M164.5 609.5L143.5 610H141.5V597V75H144L147.5 75.5L150.5 76.5L153.5 78L155.5 80L157 82.5L157.5 86V90.5L157 93.5L155.5 96L153 98.5L152 99.5L152.5 100L158 102L163 104.5L168 108.5L173 113.5L176 118L178.5 123H183.5L190.5 121.5L195.5 124L198.5 123H202.5L209.5 121.5L216.5 118L225.5 121.5L207 135L202.5 139L199.5 142.5L195 148.5L190.5 155.5L188.5 159.5L186.5 168.5L185.5 175.5L185 181.5L185.5 185.5L188 186.5L190.5 189V191.5L188 194.5L185.5 196.5L186.5 199.5V204.5L185.5 207L193 207.5L196 208.5L198 210V213L197 216.5L196 220L195.5 223H197L201 223.5L214 233L204 240L197.5 245.5L186.5 247.5L182 249L180.5 251.5L179.5 254L182 257L178.5 283.5L176 297V352V357.5L178.5 372.5L182 390L186 405.5L191.5 423L196 436L202 448L204.5 453.5L204 455.5L200.5 460H215.5V462.5L214.5 465.5L212.5 469.5L211.5 474.5V480L213.5 486.5L218.5 495L223.5 502L234.5 512.5L246.5 525L250.5 530.5L251.5 535.5V544L250.5 548L246.5 552.5L244.5 556.5L245 558.5L246.5 560L265.5 571L267 572.5V575L259.5 584.5L248 597L238 601.5L225 605L196.5 608L164.5 609.5Z" fill="#171515" stroke="black"/>
</g>
<defs>
<filter id="filter0_d_307_47" x="0.5" y="0.907532" width="386" height="618.593" filterUnits="userSpaceOnUse" color-interpolation-filters="sRGB">
<feFlood flood-opacity="0" result="BackgroundImageFix"/>
<feColorMatrix in="SourceAlpha" type="matrix" values="0 0 0 0 0 0 0 0 0 0 0 0 0 0 0 0 0 0 127 0" result="hardAlpha"/>
<feOffset dx="-11" dy="5"/>
<feGaussianBlur stdDeviation="2"/>
<feComposite in2="hardAlpha" operator="out"/>
<feColorMatrix type="matrix" values="0 0 0 0 0 0 0 0 0 0 0 0 0 0 0 0 0 0 0.25 0"/>
<feBlend mode="normal" in2="BackgroundImageFix" result="effect1_dropShadow_307_47"/>
<feBlend mode="normal" in="SourceGraphic" in2="effect1_dropShadow_307_47" result="shape"/>
</filter>
</defs>
</svg>
