<svg width="584" height="594" viewBox="0 0 584 594" fill="none" xmlns="http://www.w3.org/2000/svg">
<g filter="url(#filter0_d_330_117)">
<path d="M449 537.5L468 540.5H486.5V36L463 52L471.5 70.5H468L438 82L432 102.5L448 96L468 108L453.5 112.5L449.5 114L438 118.5L430 122L424.5 125.5L419 129.5L417.5 133L449.5 201L448 202L444.5 203.5L442 205.5V227L436.5 229L432 231.5V236L426.5 238L423 240L420.5 243V255.5L425 260L432 263.5L439.5 266L448 267.5H455L456 278.5L457.5 287V316.5L456 336L452 356.5L449.5 367L446.5 377L442.5 388L440 394.5L433 397L427.5 399.5L423.5 404.5V419L425 422.5V426.5L417.5 435.5L410.5 442L401.5 450L393.5 460L390 467.5V506.5L392 511L401.5 520L413 527L427.5 532L449 537.5Z" fill="#040404"/>
<path d="M433 397L427.5 399.5L423.5 404.5V419L425 422.5V426.5L417.5 435.5L410.5 442L401.5 450L393.5 460L390 467.5V506.5L392 511L401.5 520L413 527L427.5 532L449 537.5L468 540.5H486.5V36L463 52L471.5 70.5H468L438 82L432 102.5L448 96L468 108L453.5 112.5L449.5 114L438 118.5L430 122L424.5 125.5L419 129.5L417.5 133L449.5 201L448 202L444.5 203.5L442 205.5V227L436.5 229L432 231.5V236L426.5 238L423 240L420.5 243V255.5L425 260L432 263.5L439.5 266L448 267.5H455L456 278.5L457.5 287V316.5L456 336L452 356.5L449.5 367L446.5 377L442.5 388L440 394.5M433 397C433 397 437.266 395.476 440 394.5M433 397L440 394.5" stroke="black"/>
<path d="M524.5 537.5L505.5 540.5H487L486 36L498.5 53L516 64V70.5L505.5 66.5L494.5 69L505.5 70.5L536.5 82.5L538 105.5L525.5 97L505.5 108L520 112.5L524 114L535.5 118.5L543.5 122L549 125.5L554.5 129.5L556 133L524 201L525.5 202L529 203.5L531.5 205.5V227L537 229L541.5 231.5V236L547 238L550.5 240L553 243V255.5L548.5 260L541.5 263.5L534 266L525.5 267.5H518.5L517.5 278.5L516 287V316.5L517.5 336L521.5 356.5L524 367L527 377L531 388L533.5 394.5L540.5 397L546 399.5L550 404.5V419L548.5 422.5V426.5L556 435.5L563 442L572 450L580 460L583.5 467.5V506.5L581.5 511L572 520L560.5 527L546 532L524.5 537.5Z" fill="#171515"/>
<path d="M540.5 397L546 399.5L550 404.5V419L548.5 422.5V426.5L556 435.5L563 442L572 450L580 460L583.5 467.5V506.5L581.5 511L572 520L560.5 527L546 532L524.5 537.5L505.5 540.5H487L486 36L498.5 53L516 64V70.5L505.5 66.5L494.5 69L505.5 70.5L536.5 82.5L538 105.5L525.5 97L505.5 108L520 112.5L524 114L535.5 118.5L543.5 122L549 125.5L554.5 129.5L556 133L524 201L525.5 202L529 203.5L531.5 205.5V227L537 229L541.5 231.5V236L547 238L550.5 240L553 243V255.5L548.5 260L541.5 263.5L534 266L525.5 267.5H518.5L517.5 278.5L516 287V316.5L517.5 336L521.5 356.5L524 367L527 377L531 388L533.5 394.5M540.5 397C540.5 397 536.234 395.476 533.5 394.5M540.5 397L533.5 394.5" stroke="black"/>
<path d="M470.44 553.542L458.881 560.528L452.5 563.5L444.5 566.5L438 568.5L432 570L425 571.5L423 572L418.5 573L413.5 574L403.5 575.236H385L385.251 323.735L385.503 72.2334L386 71L386.5 70L396.057 71.498L406.109 76.4881V93.4545L398.57 86.9673L396.057 88.9634L400.58 101.938L403.596 104.932L413.145 111.918L423.699 118.904V142.856L413.145 132.377L403.596 142.357L418.171 146.849L422.192 148.346L433.751 152.837L441.793 156.33L447.321 159.823L452.85 163.815L454.358 167.308L436.767 199.245L422.192 235.173L423.699 236.171L427.218 237.668L429.731 239.664V261.122L435.259 263.118L439.782 265.613V270.104L445.311 272.1L448.829 274.096L451.342 277.09V289.565L446.819 294.056L439.782 297.55L432.244 300.045L423.699 301.542H416.663L415.658 312.52L414.15 321.003V350.445L415.658 369.906L419.679 390.365L422.192 400.845L425.207 410.825L429.228 421.803L431.741 428.29L438.777 430.785L444.306 433.28L448.326 438.27V452.742L446.819 456.235V460.227L454.358 469.209L461.394 475.696L470.44 483.68L478.482 493.66L482 501.146V540.068L479.99 544.559L470.44 553.542Z" fill="#171515"/>
<path d="M438.777 430.785L444.306 433.28L448.326 438.27V452.742L446.819 456.235V460.227L454.358 469.209L461.394 475.696L470.44 483.68L478.482 493.66L482 501.146V540.068L479.99 544.559L470.44 553.542L458.881 560.528L452.5 563.5L444.5 566.5L438 568.5L432 570L425 571.5L423 572L418.5 573L413.5 574L403.5 575.236H385L385.251 323.735L385.503 72.2334L386 71L386.5 70L396.057 71.498L406.109 76.4881V93.4545L398.57 86.9673L396.057 88.9634L400.58 101.938L403.596 104.932L413.145 111.918L423.699 118.904V142.856L413.145 132.377L403.596 142.357L418.171 146.849L422.192 148.346L433.751 152.837L441.793 156.33L447.321 159.823L452.85 163.815L454.358 167.308L436.767 199.245L422.192 235.173L423.699 236.171L427.218 237.668L429.731 239.664V261.122L435.259 263.118L439.782 265.613V270.104L445.311 272.1L448.829 274.096L451.342 277.09V289.565L446.819 294.056L439.782 297.55L432.244 300.045L423.699 301.542H416.663L415.658 312.52L414.15 321.003V350.445L415.658 369.906L419.679 390.365L422.192 400.845L425.207 410.825L429.228 421.803L431.741 428.29M438.777 430.785C438.777 430.785 434.489 429.265 431.741 428.29M438.777 430.785L431.741 428.29" stroke="black"/>
<path d="M347.694 572.494L366.5 575.239H385V72.5L375.549 86.5012L371.073 103.035L366.596 104.538L356.15 114.559L346.699 104.538V127.084L356.15 132.094L366.596 142.115L352.171 146.624L348.192 148.127L336.751 152.636L328.793 156.143L323.321 159.651L317.85 163.659L316.358 167.166L348.192 235.305L346.699 236.307L343.218 237.81L340.731 239.814V261.358L335.259 263.362L330.782 265.868V270.377L325.311 272.381L321.829 274.385L319.342 277.391V289.917L323.819 294.426L330.782 297.933L338.244 300.438L346.699 301.941H353.663L354.658 312.964L356.15 321.481V351.042L354.658 370.581L350.679 391.123L348.192 401.645L345.207 411.665L341.228 422.688L338.741 429.201L331.777 431.706L326.306 434.211L322.326 439.222V453.751L323.819 457.258V461.267L316.358 470.285L309.394 476.798L300.44 484.815L292.482 494.835L289 502.351V541.43L290.99 545.94L300.44 554.958L311.881 561.972L326.306 566.983L347.694 572.494Z" fill="#040404"/>
<path d="M331.777 431.706L326.306 434.211L322.326 439.222V453.751L323.819 457.258V461.267L316.358 470.285L309.394 476.798L300.44 484.815L292.482 494.835L289 502.351V541.43L290.99 545.94L300.44 554.958L311.881 561.972L326.306 566.983L347.694 572.494L366.5 575.239H385V72.5L375.549 86.5012L371.073 103.035L366.596 104.538L356.15 114.559L346.699 104.538V127.084L356.15 132.094L366.596 142.115L352.171 146.624L348.192 148.127L336.751 152.636L328.793 156.143L323.321 159.651L317.85 163.659L316.358 167.166L348.192 235.305L346.699 236.307L343.218 237.81L340.731 239.814V261.358L335.259 263.362L330.782 265.868V270.377L325.311 272.381L321.829 274.385L319.342 277.391V289.917L323.819 294.426L330.782 297.933L338.244 300.438L346.699 301.941H353.663L354.658 312.964L356.15 321.481V351.042L354.658 370.581L350.679 391.123L348.192 401.645L345.207 411.665L341.228 422.688L338.741 429.201M331.777 431.706C331.777 431.706 336.021 430.18 338.741 429.201M331.777 431.706L338.741 429.201" stroke="black"/>
</g>
<g filter="url(#filter1_d_330_117)">
<path d="M78.3627 571.695L98.4456 575H118V1L99.5026 16.975L89.9896 32.9501L102.145 57.1881H98.4456L51.4093 41.7639L77.3057 98.5029H98.4456L83.1192 103.461H78.8912L73.6062 106.215H66.2073L58.2798 113.927H51.9378L46.6529 122.19L40.3109 117.783L78.8912 200.964L77.3057 202.065L73.6062 203.718L68.8497 202.616L65.1503 200.964L60.3938 197.107L70.9637 229.608L65.1503 231.812L60.3938 234.566V239.524L54.5803 241.727L50.8808 243.931L40.3109 234.566L48.2383 261.008L52.9948 265.965L60.3938 269.822L68.3212 272.576L77.3057 274.228H84.7047L85.7617 286.347L87.3472 295.712V328.213L85.7617 349.697L81.5337 372.282L78.8912 383.85L75.7202 394.868L71.4922 406.987L68.8497 414.148L61.4508 416.902L55.6373 419.656L46.6529 414.148L51.4093 441.14L52.9948 444.996V449.403L45.0674 459.319L37.6684 466.48L28.1554 475.294L19.6995 486.311L16 494.574V537.541L18.114 542.499L28.1554 552.415L40.3109 560.127L55.6373 565.635L78.3627 571.695Z" fill="#040404"/>
<path d="M61.4508 416.902L55.6373 419.656L46.6529 414.148L51.4093 441.14L52.9948 444.996V449.403L45.0674 459.319L37.6684 466.48L28.1554 475.294L19.6995 486.311L16 494.574V537.541L18.114 542.499L28.1554 552.415L40.3109 560.127L55.6373 565.635L78.3627 571.695L98.4456 575H118V1L99.5026 16.975L89.9896 32.9501L102.145 57.1881H98.4456L51.4093 41.7639L77.3057 98.5029H98.4456L83.1192 103.461H78.8912L73.6062 106.215H66.2073L58.2798 113.927H51.9378L46.6529 122.19L40.3109 117.783L78.8912 200.964L77.3057 202.065L73.6062 203.718L68.8497 202.616L65.1503 200.964L60.3938 197.107L70.9637 229.608L65.1503 231.812L60.3938 234.566V239.524L54.5803 241.727L50.8808 243.931L40.3109 234.566L48.2383 261.008L52.9948 265.965L60.3938 269.822L68.3212 272.576L77.3057 274.228H84.7047L85.7617 286.347L87.3472 295.712V328.213L85.7617 349.697L81.5337 372.282L78.8912 383.85L75.7202 394.868L71.4922 406.987L68.8497 414.148M61.4508 416.902C61.4508 416.902 65.9603 415.223 68.8497 414.148M61.4508 416.902L68.8497 414.148" stroke="#040404" stroke-width="0.5"/>
<path d="M157.637 571.695L137.554 575H118V1L136.497 16.975L146.01 32.9501L133.855 57.1881H137.554L184.591 41.7639L158.694 98.5029H137.554L152.881 103.461H157.109L162.394 106.215H169.793L177.72 113.927H184.062L189.347 122.19L195.689 117.783L157.109 200.964L158.694 202.065L162.394 203.718L167.15 202.616L170.85 200.964L175.606 197.107L165.036 229.608L170.85 231.812L175.606 234.566V239.524L181.42 241.727L185.119 243.931L195.689 234.566L187.762 261.008L183.005 265.965L175.606 269.822L167.679 272.576L158.694 274.228H151.295L150.238 286.347L148.653 295.712V328.213L150.238 349.697L154.466 372.282L157.109 383.85L160.28 394.868L164.508 406.987L167.15 414.148L174.549 416.902L180.363 419.656L189.347 414.148L184.591 441.14L183.005 444.996V449.403L190.933 459.319L198.332 466.48L207.845 475.294L216.301 486.311L220 494.574V537.541L217.886 542.499L207.845 552.415L195.689 560.127L180.363 565.635L157.637 571.695Z" fill="#171515"/>
<path d="M174.549 416.902L180.363 419.656L189.347 414.148L184.591 441.14L183.005 444.996V449.403L190.933 459.319L198.332 466.48L207.845 475.294L216.301 486.311L220 494.574V537.541L217.886 542.499L207.845 552.415L195.689 560.127L180.363 565.635L157.637 571.695L137.554 575H118V1L136.497 16.975L146.01 32.9501L133.855 57.1881H137.554L184.591 41.7639L158.694 98.5029H137.554L152.881 103.461H157.109L162.394 106.215H169.793L177.72 113.927H184.062L189.347 122.19L195.689 117.783L157.109 200.964L158.694 202.065L162.394 203.718L167.15 202.616L170.85 200.964L175.606 197.107L165.036 229.608L170.85 231.812L175.606 234.566V239.524L181.42 241.727L185.119 243.931L195.689 234.566L187.762 261.008L183.005 265.965L175.606 269.822L167.679 272.576L158.694 274.228H151.295L150.238 286.347L148.653 295.712V328.213L150.238 349.697L154.466 372.282L157.109 383.85L160.28 394.868L164.508 406.987L167.15 414.148M174.549 416.902C174.549 416.902 170.04 415.223 167.15 414.148M174.549 416.902L167.15 414.148" stroke="#171515" stroke-width="0.5"/>
<path d="M223.809 583.488L245.896 584H248V570.684V36H245.371L241.689 36.5121L238.534 37.5364L235.378 39.0729L233.275 41.1215L231.697 43.6822L231.171 47.2673V51.8766L231.697 54.9495L233.275 57.5103L235.904 60.071L236.956 61.0953L236.43 61.6075L230.645 63.6561L225.386 66.2168L220.127 70.314L214.869 75.4355L211.713 80.0449L209.084 85.1664H203.825L196.462 83.6299L191.203 86.1907L188.048 85.1664H183.841L176.478 83.6299L169.116 80.0449L159.649 83.6299L179.108 97.4579L183.841 101.555L186.996 105.14L191.729 111.286L196.462 118.456L198.566 122.553L200.669 131.772L201.721 138.942L202.247 145.088L201.721 149.185L199.092 150.209L196.462 152.77V155.331L199.092 158.404L201.721 160.452L200.669 163.525V168.647L201.721 171.207L193.833 171.72L190.677 172.744L188.574 174.28V177.353L189.625 180.938L190.677 184.523L191.203 187.596H189.625L185.418 188.108L171.745 197.839L182.263 205.009L189.1 210.643L200.669 212.692L205.402 214.228L206.98 216.789L208.032 219.35L205.402 222.422L209.084 249.566L211.713 263.394V319.731V325.364L209.084 340.729L205.402 358.654L201.195 374.531L195.41 392.456L190.677 405.772L184.367 418.064L181.737 423.697L182.263 425.746L185.944 430.355H170.167V432.916L171.219 435.989L173.323 440.086L174.374 445.207V450.841L172.271 457.499L167.012 466.206L161.753 473.376L150.183 484.131L137.562 496.935L133.355 502.568L132.303 507.69V516.396L133.355 520.493L137.562 525.103L139.665 529.2L139.139 531.249L137.562 532.785L117.578 544.052L116 545.589V548.15L123.888 557.88L135.984 570.684L146.502 575.293L160.175 578.878L190.151 581.951L223.809 583.488Z" fill="#040404" stroke="black"/>
<path d="M272.191 583.488L250.104 584H248V570.684V36H250.629L254.311 36.5121L257.466 37.5364L260.622 39.0729L262.725 41.1215L264.303 43.6822L264.829 47.2673V51.8766L264.303 54.9495L262.725 57.5103L260.096 60.071L259.044 61.0953L259.57 61.6075L265.355 63.6561L270.614 66.2168L275.873 70.314L281.131 75.4355L284.287 80.0449L286.916 85.1664H292.175L299.538 83.6299L304.797 86.1907L307.952 85.1664H312.159L319.522 83.6299L326.884 80.0449L336.351 83.6299L316.892 97.4579L312.159 101.555L309.004 105.14L304.271 111.286L299.538 118.456L297.434 122.553L295.331 131.772L294.279 138.942L293.753 145.088L294.279 149.185L296.908 150.209L299.538 152.77V155.331L296.908 158.404L294.279 160.452L295.331 163.525V168.647L294.279 171.207L302.167 171.72L305.323 172.744L307.426 174.28V177.353L306.375 180.938L305.323 184.523L304.797 187.596H306.375L310.582 188.108L324.255 197.839L313.737 205.009L306.9 210.643L295.331 212.692L290.598 214.228L289.02 216.789L287.968 219.35L290.598 222.422L286.916 249.566L284.287 263.394V319.731V325.364L286.916 340.729L290.598 358.654L294.805 374.531L300.59 392.456L305.323 405.772L311.633 418.064L314.263 423.697L313.737 425.746L310.056 430.355H325.833V432.916L324.781 435.989L322.677 440.086L321.626 445.207V450.841L323.729 457.499L328.988 466.206L334.247 473.376L345.817 484.131L358.438 496.935L362.645 502.568L363.697 507.69V516.396L362.645 520.493L358.438 525.103L356.335 529.2L356.861 531.249L358.438 532.785L378.422 544.052L380 545.589V548.15L372.112 557.88L360.016 570.684L349.498 575.293L335.825 578.878L305.849 581.951L272.191 583.488Z" fill="#171515" stroke="black"/>
</g>
<defs>
<filter id="filter0_d_330_117" x="273.5" y="34.4718" width="310.5" height="550.267" filterUnits="userSpaceOnUse" color-interpolation-filters="sRGB">
<feFlood flood-opacity="0" result="BackgroundImageFix"/>
<feColorMatrix in="SourceAlpha" type="matrix" values="0 0 0 0 0 0 0 0 0 0 0 0 0 0 0 0 0 0 127 0" result="hardAlpha"/>
<feOffset dx="-11" dy="5"/>
<feGaussianBlur stdDeviation="2"/>
<feComposite in2="hardAlpha" operator="out"/>
<feColorMatrix type="matrix" values="0 0 0 0 0 0 0 0 0 0 0 0 0 0 0 0 0 0 0.25 0"/>
<feBlend mode="normal" in2="BackgroundImageFix" result="effect1_dropShadow_330_117"/>
<feBlend mode="normal" in="SourceGraphic" in2="effect1_dropShadow_330_117" result="shape"/>
</filter>
<filter id="filter1_d_330_117" x="0.75" y="0.453766" width="379.75" height="593.046" filterUnits="userSpaceOnUse" color-interpolation-filters="sRGB">
<feFlood flood-opacity="0" result="BackgroundImageFix"/>
<feColorMatrix in="SourceAlpha" type="matrix" values="0 0 0 0 0 0 0 0 0 0 0 0 0 0 0 0 0 0 127 0" result="hardAlpha"/>
<feOffset dx="-11" dy="5"/>
<feGaussianBlur stdDeviation="2"/>
<feComposite in2="hardAlpha" operator="out"/>
<feColorMatrix type="matrix" values="0 0 0 0 0 0 0 0 0 0 0 0 0 0 0 0 0 0 0.25 0"/>
<feBlend mode="normal" in2="BackgroundImageFix" result="effect1_dropShadow_330_117"/>
<feBlend mode="normal" in="SourceGraphic" in2="effect1_dropShadow_330_117" result="shape"/>
</filter>
</defs>
</svg>
