<svg width="356" height="557" viewBox="0 0 356 557" fill="none" xmlns="http://www.w3.org/2000/svg">
<g filter="url(#filter0_d_306_41)">
<path d="M76 503.5L95 506.5H113.5V2L90 18L98.5 36.5H95L65 48L59 68.5L75 62L95 74L80.5 78.5L76.5 80L65 84.5L57 88L51.5 91.5L46 95.5L44.5 99L76.5 167L75 168L71.5 169.5L69 171.5V193L63.5 195L59 197.5V202L53.5 204L50 206L47.5 209V221.5L52 226L59 229.5L66.5 232L75 233.5H82L83 244.5L84.5 253V282.5L83 302L79 322.5L76.5 333L73.5 343L69.5 354L67 360.5L60 363L54.5 365.5L50.5 370.5V385L52 388.5V392.5L44.5 401.5L37.5 408L28.5 416L20.5 426L17 433.5V472.5L19 477L28.5 486L40 493L54.5 498L76 503.5Z" fill="#040404"/>
<path d="M60 363L54.5 365.5L50.5 370.5V385L52 388.5V392.5L44.5 401.5L37.5 408L28.5 416L20.5 426L17 433.5V472.5L19 477L28.5 486L40 493L54.5 498L76 503.5L95 506.5H113.5V2L90 18L98.5 36.5H95L65 48L59 68.5L75 62L95 74L80.5 78.5L76.5 80L65 84.5L57 88L51.5 91.5L46 95.5L44.5 99L76.5 167L75 168L71.5 169.5L69 171.5V193L63.5 195L59 197.5V202L53.5 204L50 206L47.5 209V221.5L52 226L59 229.5L66.5 232L75 233.5H82L83 244.5L84.5 253V282.5L83 302L79 322.5L76.5 333L73.5 343L69.5 354L67 360.5M60 363C60 363 64.2663 361.476 67 360.5M60 363L67 360.5" stroke="black"/>
<path d="M151.5 503.5L132.5 506.5H114L113 2L125.5 19L143 30V36.5L132.5 32.5L121.5 35L132.5 36.5L163.5 48.5L165 71.5L152.5 63L132.5 74L147 78.5L151 80L162.5 84.5L170.5 88L176 91.5L181.5 95.5L183 99L151 167L152.5 168L156 169.5L158.5 171.5V193L164 195L168.5 197.5V202L174 204L177.5 206L180 209V221.5L175.5 226L168.5 229.5L161 232L152.5 233.5H145.5L144.5 244.5L143 253V282.5L144.5 302L148.5 322.5L151 333L154 343L158 354L160.5 360.5L167.5 363L173 365.5L177 370.5V385L175.5 388.5V392.5L183 401.5L190 408L199 416L207 426L210.5 433.5V472.5L208.5 477L199 486L187.5 493L173 498L151.5 503.5Z" fill="#171515"/>
<path d="M167.5 363L173 365.5L177 370.5V385L175.5 388.5V392.5L183 401.5L190 408L199 416L207 426L210.5 433.5V472.5L208.5 477L199 486L187.5 493L173 498L151.5 503.5L132.5 506.5H114L113 2L125.5 19L143 30V36.5L132.5 32.5L121.5 35L132.5 36.5L163.5 48.5L165 71.5L152.5 63L132.5 74L147 78.5L151 80L162.5 84.5L170.5 88L176 91.5L181.5 95.5L183 99L151 167L152.5 168L156 169.5L158.5 171.5V193L164 195L168.5 197.5V202L174 204L177.5 206L180 209V221.5L175.5 226L168.5 229.5L161 232L152.5 233.5H145.5L144.5 244.5L143 253V282.5L144.5 302L148.5 322.5L151 333L154 343L158 354L160.5 360.5M167.5 363C167.5 363 163.234 361.476 160.5 360.5M167.5 363L160.5 360.5" stroke="black"/>
</g>
<g filter="url(#filter1_d_306_41)">
<path d="M343.44 525.542L331.881 532.528L325.5 535.5L317.5 538.5L311 540.5L305 542L298 543.5L296 544L291.5 545L286.5 546L276.5 547.236H258L258.251 295.735L258.503 44.2334L259 43L259.5 42L269.057 43.498L279.109 48.4881V65.4545L271.57 58.9673L269.057 60.9634L273.58 73.9376L276.596 76.9317L286.145 83.9178L296.699 90.904V114.856L286.145 104.377L276.596 114.357L291.171 118.849L295.192 120.346L306.751 124.837L314.793 128.33L320.321 131.823L325.85 135.815L327.358 139.308L309.767 171.245L295.192 207.173L296.699 208.171L300.218 209.668L302.731 211.664V233.122L308.259 235.118L312.782 237.613V242.104L318.311 244.1L321.829 246.096L324.342 249.09V261.565L319.819 266.056L312.782 269.55L305.244 272.045L296.699 273.542H289.663L288.658 284.52L287.15 293.003V322.445L288.658 341.906L292.679 362.365L295.192 372.845L298.207 382.825L302.228 393.803L304.741 400.29L311.777 402.785L317.306 405.28L321.326 410.27V424.742L319.819 428.235V432.227L327.358 441.209L334.394 447.696L343.44 455.68L351.482 465.66L355 473.146V512.068L352.99 516.559L343.44 525.542Z" fill="#171515"/>
<path d="M311.777 402.785L317.306 405.28L321.326 410.27V424.742L319.819 428.235V432.227L327.358 441.209L334.394 447.696L343.44 455.68L351.482 465.66L355 473.146V512.068L352.99 516.559L343.44 525.542L331.881 532.528L325.5 535.5L317.5 538.5L311 540.5L305 542L298 543.5L296 544L291.5 545L286.5 546L276.5 547.236H258L258.251 295.735L258.503 44.2334L259 43L259.5 42L269.057 43.498L279.109 48.4881V65.4545L271.57 58.9673L269.057 60.9634L273.58 73.9376L276.596 76.9317L286.145 83.9178L296.699 90.904V114.856L286.145 104.377L276.596 114.357L291.171 118.849L295.192 120.346L306.751 124.837L314.793 128.33L320.321 131.823L325.85 135.815L327.358 139.308L309.767 171.245L295.192 207.173L296.699 208.171L300.218 209.668L302.731 211.664V233.122L308.259 235.118L312.782 237.613V242.104L318.311 244.1L321.829 246.096L324.342 249.09V261.565L319.819 266.056L312.782 269.55L305.244 272.045L296.699 273.542H289.663L288.658 284.52L287.15 293.003V322.445L288.658 341.906L292.679 362.365L295.192 372.845L298.207 382.825L302.228 393.803L304.741 400.29M311.777 402.785C311.777 402.785 307.489 401.265 304.741 400.29M311.777 402.785L304.741 400.29" stroke="black"/>
<path d="M220.694 544.494L239.5 547.239H258V44.5L248.549 58.5012L244.073 75.035L239.596 76.538L229.15 86.5586L219.699 76.538V99.0842L229.15 104.094L239.596 114.115L225.171 118.624L221.192 120.127L209.751 124.636L201.793 128.143L196.321 131.651L190.85 135.659L189.358 139.166L221.192 207.305L219.699 208.307L216.218 209.81L213.731 211.814V233.358L208.259 235.362L203.782 237.868V242.377L198.311 244.381L194.829 246.385L192.342 249.391V261.917L196.819 266.426L203.782 269.933L211.244 272.438L219.699 273.941H226.663L227.658 284.964L229.15 293.481V323.042L227.658 342.581L223.679 363.123L221.192 373.645L218.207 383.665L214.228 394.688L211.741 401.201L204.777 403.706L199.306 406.211L195.326 411.222V425.751L196.819 429.258V433.267L189.358 442.285L182.394 448.798L173.44 456.815L165.482 466.835L162 474.351V513.43L163.99 517.94L173.44 526.958L184.881 533.972L199.306 538.983L220.694 544.494Z" fill="#040404"/>
<path d="M204.777 403.706L199.306 406.211L195.326 411.222V425.751L196.819 429.258V433.267L189.358 442.285L182.394 448.798L173.44 456.815L165.482 466.835L162 474.351V513.43L163.99 517.94L173.44 526.958L184.881 533.972L199.306 538.983L220.694 544.494L239.5 547.239H258V44.5L248.549 58.5012L244.073 75.035L239.596 76.538L229.15 86.5586L219.699 76.538V99.0842L229.15 104.094L239.596 114.115L225.171 118.624L221.192 120.127L209.751 124.636L201.793 128.143L196.321 131.651L190.85 135.659L189.358 139.166L221.192 207.305L219.699 208.307L216.218 209.81L213.731 211.814V233.358L208.259 235.362L203.782 237.868V242.377L198.311 244.381L194.829 246.385L192.342 249.391V261.917L196.819 266.426L203.782 269.933L211.244 272.438L219.699 273.941H226.663L227.658 284.964L229.15 293.481V323.042L227.658 342.581L223.679 363.123L221.192 373.645L218.207 383.665L214.228 394.688L211.741 401.201M204.777 403.706C204.777 403.706 209.021 402.18 211.741 401.201M204.777 403.706L211.741 401.201" stroke="black"/>
</g>
<defs>
<filter id="filter0_d_306_41" x="0.5" y="0.471832" width="210.5" height="515.528" filterUnits="userSpaceOnUse" color-interpolation-filters="sRGB">
<feFlood flood-opacity="0" result="BackgroundImageFix"/>
<feColorMatrix in="SourceAlpha" type="matrix" values="0 0 0 0 0 0 0 0 0 0 0 0 0 0 0 0 0 0 127 0" result="hardAlpha"/>
<feOffset dx="-12" dy="5"/>
<feGaussianBlur stdDeviation="2"/>
<feComposite in2="hardAlpha" operator="out"/>
<feColorMatrix type="matrix" values="0 0 0 0 0 0 0 0 0 0 0 0 0 0 0 0 0 0 0.25 0"/>
<feBlend mode="normal" in2="BackgroundImageFix" result="effect1_dropShadow_306_41"/>
<feBlend mode="normal" in="SourceGraphic" in2="effect1_dropShadow_306_41" result="shape"/>
</filter>
<filter id="filter1_d_306_41" x="145.5" y="41.4494" width="210" height="515.289" filterUnits="userSpaceOnUse" color-interpolation-filters="sRGB">
<feFlood flood-opacity="0" result="BackgroundImageFix"/>
<feColorMatrix in="SourceAlpha" type="matrix" values="0 0 0 0 0 0 0 0 0 0 0 0 0 0 0 0 0 0 127 0" result="hardAlpha"/>
<feOffset dx="-12" dy="5"/>
<feGaussianBlur stdDeviation="2"/>
<feComposite in2="hardAlpha" operator="out"/>
<feColorMatrix type="matrix" values="0 0 0 0 0 0 0 0 0 0 0 0 0 0 0 0 0 0 0.25 0"/>
<feBlend mode="normal" in2="BackgroundImageFix" result="effect1_dropShadow_306_41"/>
<feBlend mode="normal" in="SourceGraphic" in2="effect1_dropShadow_306_41" result="shape"/>
</filter>
</defs>
</svg>
