<svg width="364" height="558" viewBox="0 0 364 558" fill="none" xmlns="http://www.w3.org/2000/svg">
<g filter="url(#filter0_d_323_79)">
<path d="M75 504L94 507H112.5L111 2L89.5 18.5L97.5 37H94L64 48.5L58 69L74 62.5L94 74.5L79.5 79L75.5 80.5L64 85L56 88.5L50.5 92L45 96L43.5 99.5L75.5 167.5L74 168.5L70.5 170L68 172V193.5L62.5 195.5L58 198V202.5L52.5 204.5L49 206.5L46.5 209.5V222L51 226.5L58 230L65.5 232.5L74 234H81L82 245L83.5 253.5V283L82 302.5L78 323L75.5 333.5L72.5 343.5L68.5 354.5L66 361L59 363.5L53.5 366L49.5 371V385.5L51 389V393L43.5 402L36.5 408.5L27.5 416.5L19.5 426.5L16 434V473L18 477.5L27.5 486.5L39 493.5L53.5 498.5L75 504Z" fill="#040404"/>
<path d="M59 363.5L53.5 366L49.5 371V385.5L51 389V393L43.5 402L36.5 408.5L27.5 416.5L19.5 426.5L16 434V473L18 477.5L27.5 486.5L39 493.5L53.5 498.5L75 504L94 507H112.5L111 2L89.5 18.5L97.5 37H94L64 48.5L58 69L74 62.5L94 74.5L79.5 79L75.5 80.5L64 85L56 88.5L50.5 92L45 96L43.5 99.5L75.5 167.5L74 168.5L70.5 170L68 172V193.5L62.5 195.5L58 198V202.5L52.5 204.5L49 206.5L46.5 209.5V222L51 226.5L58 230L65.5 232.5L74 234H81L82 245L83.5 253.5V283L82 302.5L78 323L75.5 333.5L72.5 343.5L68.5 354.5L66 361M59 363.5C59 363.5 63.2663 361.976 66 361M59 363.5L66 361" stroke="black" stroke-width="1.1"/>
<path d="M150.5 504L131.5 507H113L112 2.5L124.5 19.5L142 30.5V37L131.5 33L120.5 35.5L131.5 37L162.5 49L164 72L151.5 63.5L131.5 74.5L146 79L150 80.5L161.5 85L169.5 88.5L175 92L180.5 96L182 99.5L150 167.5L151.5 168.5L155 170L157.5 172V193.5L163 195.5L167.5 198V202.5L173 204.5L176.5 206.5L179 209.5V222L174.5 226.5L167.5 230L160 232.5L151.5 234H144.5L143.5 245L142 253.5V283L143.5 302.5L147.5 323L150 333.5L153 343.5L157 354.5L159.5 361L166.5 363.5L172 366L176 371V385.5L174.5 389V393L182 402L189 408.5L198 416.5L206 426.5L209.5 434V473L207.5 477.5L198 486.5L186.5 493.5L172 498.5L150.5 504Z" fill="#171515"/>
<path d="M166.5 363.5L172 366L176 371V385.5L174.5 389V393L182 402L189 408.5L198 416.5L206 426.5L209.5 434V473L207.5 477.5L198 486.5L186.5 493.5L172 498.5L150.5 504L131.5 507H113L112 2.5L124.5 19.5L142 30.5V37L131.5 33L120.5 35.5L131.5 37L162.5 49L164 72L151.5 63.5L131.5 74.5L146 79L150 80.5L161.5 85L169.5 88.5L175 92L180.5 96L182 99.5L150 167.5L151.5 168.5L155 170L157.5 172V193.5L163 195.5L167.5 198V202.5L173 204.5L176.5 206.5L179 209.5V222L174.5 226.5L167.5 230L160 232.5L151.5 234H144.5L143.5 245L142 253.5V283L143.5 302.5L147.5 323L150 333.5L153 343.5L157 354.5L159.5 361M166.5 363.5C166.5 363.5 162.234 361.976 159.5 361M166.5 363.5L159.5 361" stroke="black" stroke-width="1.1"/>
<path d="M342.44 526.042L330.881 533.028L324.5 536L316.5 539L310 541L304 542.5L297 544L295 544.5L290.5 545.5L285.5 546.5L275.5 547.736H257L257.251 296.235L257.503 44.7334L258 43.5L258.5 42.5L268.057 43.998L278.109 48.9881V65.9545L270.57 59.4673L268.057 61.4634L272.58 74.4376L275.596 77.4317L285.145 84.4178L295.699 91.404V115.356L285.145 104.877L275.596 114.857L290.171 119.349L294.192 120.846L305.751 125.337L313.793 128.83L319.321 132.323L324.85 136.315L326.358 139.808L308.767 171.745L294.192 207.673L295.699 208.671L299.218 210.168L301.731 212.164V233.622L307.259 235.618L311.782 238.113V242.604L317.311 244.6L320.829 246.596L323.342 249.59V262.065L318.819 266.556L311.782 270.05L304.244 272.545L295.699 274.042H288.663L287.658 285.02L286.15 293.503V322.945L287.658 342.406L291.679 362.865L294.192 373.345L297.207 383.325L301.228 394.303L303.741 400.79L310.777 403.285L316.306 405.78L320.326 410.77V425.242L318.819 428.735V432.727L326.358 441.709L333.394 448.196L342.44 456.18L350.482 466.16L354 473.646V512.568L351.99 517.059L342.44 526.042Z" fill="#171515"/>
<path d="M310.777 403.285L316.306 405.78L320.326 410.77V425.242L318.819 428.735V432.727L326.358 441.709L333.394 448.196L342.44 456.18L350.482 466.16L354 473.646V512.568L351.99 517.059L342.44 526.042L330.881 533.028L324.5 536L316.5 539L310 541L304 542.5L297 544L295 544.5L290.5 545.5L285.5 546.5L275.5 547.736H257L257.251 296.235L257.503 44.7334L258 43.5L258.5 42.5L268.057 43.998L278.109 48.9881V65.9545L270.57 59.4673L268.057 61.4634L272.58 74.4376L275.596 77.4317L285.145 84.4178L295.699 91.404V115.356L285.145 104.877L275.596 114.857L290.171 119.349L294.192 120.846L305.751 125.337L313.793 128.83L319.321 132.323L324.85 136.315L326.358 139.808L308.767 171.745L294.192 207.673L295.699 208.671L299.218 210.168L301.731 212.164V233.622L307.259 235.618L311.782 238.113V242.604L317.311 244.6L320.829 246.596L323.342 249.59V262.065L318.819 266.556L311.782 270.05L304.244 272.545L295.699 274.042H288.663L287.658 285.02L286.15 293.503V322.945L287.658 342.406L291.679 362.865L294.192 373.345L297.207 383.325L301.228 394.303L303.741 400.79M310.777 403.285C310.777 403.285 306.489 401.765 303.741 400.79M310.777 403.285L303.741 400.79" stroke="black"/>
<path d="M219.694 544.994L238.5 547.739H257V45L247.549 59.0012L243.073 75.535L238.596 77.038L228.15 87.0586L218.699 77.038V99.5842L228.15 104.594L238.596 114.615L224.171 119.124L220.192 120.627L208.751 125.136L200.793 128.643L195.321 132.151L189.85 136.159L188.358 139.666L220.192 207.805L218.699 208.807L215.218 210.31L212.731 212.314V233.858L207.259 235.862L202.782 238.368V242.877L197.311 244.881L193.829 246.885L191.342 249.891V262.417L195.819 266.926L202.782 270.433L210.244 272.938L218.699 274.441H225.663L226.658 285.464L228.15 293.981V323.542L226.658 343.081L222.679 363.623L220.192 374.145L217.207 384.165L213.228 395.188L210.741 401.701L203.777 404.206L198.306 406.711L194.326 411.722V426.251L195.819 429.758V433.767L188.358 442.785L181.394 449.298L172.44 457.315L164.482 467.335L161 474.851V513.93L162.99 518.44L172.44 527.458L183.881 534.472L198.306 539.483L219.694 544.994Z" fill="#040404"/>
<path d="M203.777 404.206L198.306 406.711L194.326 411.722V426.251L195.819 429.758V433.767L188.358 442.785L181.394 449.298L172.44 457.315L164.482 467.335L161 474.851V513.93L162.99 518.44L172.44 527.458L183.881 534.472L198.306 539.483L219.694 544.994L238.5 547.739H257V45L247.549 59.0012L243.073 75.535L238.596 77.038L228.15 87.0586L218.699 77.038V99.5842L228.15 104.594L238.596 114.615L224.171 119.124L220.192 120.627L208.751 125.136L200.793 128.643L195.321 132.151L189.85 136.159L188.358 139.666L220.192 207.805L218.699 208.807L215.218 210.31L212.731 212.314V233.858L207.259 235.862L202.782 238.368V242.877L197.311 244.881L193.829 246.885L191.342 249.891V262.417L195.819 266.926L202.782 270.433L210.244 272.938L218.699 274.441H225.663L226.658 285.464L228.15 293.981V323.542L226.658 343.081L222.679 363.623L220.192 374.145L217.207 384.165L213.228 395.188L210.741 401.701M203.777 404.206C203.777 404.206 208.021 402.68 210.741 401.701M203.777 404.206L210.741 401.701" stroke="black"/>
</g>
<defs>
<filter id="filter0_d_323_79" x="0.450012" y="0.819025" width="354.05" height="556.42" filterUnits="userSpaceOnUse" color-interpolation-filters="sRGB">
<feFlood flood-opacity="0" result="BackgroundImageFix"/>
<feColorMatrix in="SourceAlpha" type="matrix" values="0 0 0 0 0 0 0 0 0 0 0 0 0 0 0 0 0 0 127 0" result="hardAlpha"/>
<feOffset dx="-11" dy="5"/>
<feGaussianBlur stdDeviation="2"/>
<feComposite in2="hardAlpha" operator="out"/>
<feColorMatrix type="matrix" values="0 0 0 0 0 0 0 0 0 0 0 0 0 0 0 0 0 0 0.25 0"/>
<feBlend mode="normal" in2="BackgroundImageFix" result="effect1_dropShadow_323_79"/>
<feBlend mode="normal" in="SourceGraphic" in2="effect1_dropShadow_323_79" result="shape"/>
</filter>
</defs>
</svg>
