<svg xmlns="http://www.w3.org/2000/svg" xmlns:xlink="http://www.w3.org/1999/xlink" width="1024" zoomAndPan="magnify" viewBox="0 0 768 767.999994" height="1024" preserveAspectRatio="xMidYMid meet" version="1.0"><defs><g/><clipPath id="21cc04c859"><path d="M 268 0 L 768 0 L 768 768 L 268 768 Z M 268 0 " clip-rule="nonzero"/></clipPath><clipPath id="1fbf44d978"><path d="M 268.761719 -4.605469 L 742.03125 -176.410156 L 1047.386719 664.753906 L 574.117188 836.558594 Z M 268.761719 -4.605469 " clip-rule="nonzero"/></clipPath><clipPath id="b3413790bb"><path d="M 268.761719 -4.605469 L 742.03125 -176.410156 L 1047.246094 664.363281 L 573.976562 836.167969 Z M 268.761719 -4.605469 " clip-rule="nonzero"/></clipPath></defs><rect x="-76.8" width="921.6" fill="#ffffff" y="-76.799999" height="921.599993" fill-opacity="1"/><rect x="-76.8" width="921.6" fill="#000000" y="-76.799999" height="921.599993" fill-opacity="1"/><g clip-path="url(#21cc04c859)"><g clip-path="url(#1fbf44d978)"><g clip-path="url(#b3413790bb)"><path fill="#ffffff" d="M 268.761719 -4.605469 L 742.03125 -176.410156 L 1047.386719 664.753906 L 574.117188 836.558594 Z M 268.761719 -4.605469 " fill-opacity="1" fill-rule="nonzero"/></g></g></g><g fill="#ffffff" fill-opacity="1"><g transform="translate(140.943979, 507.374995)"><g><path d="M 45.84375 -238.3125 L 18.546875 -242.515625 L 18.546875 -260.015625 L 65.09375 -260.015625 C 73.488281 -260.015625 81.769531 -260.363281 89.9375 -261.0625 C 102.53125 -262 114.429688 -262.46875 125.640625 -262.46875 C 159.460938 -262.226562 183.375 -255.925781 197.375 -243.5625 C 211.375 -231.195312 218.375 -212.535156 218.375 -187.578125 C 218.375 -168.910156 214.054688 -152.691406 205.421875 -138.921875 C 196.785156 -125.160156 184.828125 -114.664062 169.546875 -107.4375 C 154.265625 -100.207031 136.710938 -96.59375 116.890625 -96.59375 C 110.117188 -96.59375 103.234375 -96.765625 96.234375 -97.109375 C 89.234375 -97.460938 84.914062 -97.753906 83.28125 -97.984375 L 83.28125 -21 L 131.234375 -17.140625 L 131.234375 0 L 16.796875 0 L 16.796875 -17.140625 L 45.84375 -20.640625 Z M 83.28125 -117.234375 C 89.820312 -116.066406 101.023438 -115.484375 116.890625 -115.484375 C 135.316406 -115.484375 150.300781 -121.082031 161.84375 -132.28125 C 173.394531 -143.476562 179.171875 -161.789062 179.171875 -187.21875 C 179.171875 -207.289062 174.15625 -221.695312 164.125 -230.4375 C 154.09375 -239.1875 138.460938 -243.5625 117.234375 -243.5625 C 109.765625 -243.5625 101.832031 -243.097656 93.4375 -242.171875 C 88.300781 -241.703125 84.914062 -241.46875 83.28125 -241.46875 Z M 83.28125 -117.234375 "/></g></g></g><g fill="#000000" fill-opacity="1"><g transform="translate(392.568966, 507.374995)"><g><path d="M -5.59375 -260.015625 L 87.484375 -260.015625 L 87.484375 -242.515625 L 56.34375 -238.3125 L 114.078125 -74.1875 L 127.03125 -31.5 L 138.578125 -74.890625 L 190.71875 -238.3125 L 163.078125 -242.515625 L 163.078125 -260.015625 L 241.125 -260.015625 L 241.125 -242.515625 L 218.71875 -238.3125 L 135.78125 2.796875 L 105.328125 2.796875 L 15.75 -238.3125 L -5.59375 -242.515625 Z M -5.59375 -260.015625 "/></g></g></g></svg>