<svg width="221" height="585" viewBox="0 0 221 585" fill="none" xmlns="http://www.w3.org/2000/svg">
<g filter="url(#filter0_d_325_108)">
<path d="M78.3627 571.695L98.4456 575H118V1L99.5026 16.975L89.9896 32.9501L102.145 57.1881H98.4456L51.4093 41.7639L77.3057 98.5029H98.4456L83.1192 103.461H78.8912L73.6062 106.215H66.2073L58.2798 113.927H51.9378L46.6529 122.19L40.3109 117.783L78.8912 200.964L77.3057 202.065L73.6062 203.718L68.8497 202.616L65.1503 200.964L60.3938 197.107L70.9637 229.608L65.1503 231.812L60.3938 234.566V239.524L54.5803 241.727L50.8808 243.931L40.3109 234.566L48.2383 261.008L52.9948 265.965L60.3938 269.822L68.3212 272.576L77.3057 274.228H84.7047L85.7617 286.347L87.3472 295.712V328.213L85.7617 349.697L81.5337 372.282L78.8912 383.85L75.7202 394.868L71.4922 406.987L68.8497 414.148L61.4508 416.902L55.6373 419.656L46.6529 414.148L51.4093 441.14L52.9948 444.996V449.403L45.0674 459.319L37.6684 466.48L28.1554 475.294L19.6995 486.311L16 494.574V537.541L18.114 542.499L28.1554 552.415L40.3109 560.127L55.6373 565.635L78.3627 571.695Z" fill="#EADAB5"/>
<path d="M61.4508 416.902L55.6373 419.656L46.6529 414.148L51.4093 441.14L52.9948 444.996V449.403L45.0674 459.319L37.6684 466.48L28.1554 475.294L19.6995 486.311L16 494.574V537.541L18.114 542.499L28.1554 552.415L40.3109 560.127L55.6373 565.635L78.3627 571.695L98.4456 575H118V1L99.5026 16.975L89.9896 32.9501L102.145 57.1881H98.4456L51.4093 41.7639L77.3057 98.5029H98.4456L83.1192 103.461H78.8912L73.6062 106.215H66.2073L58.2798 113.927H51.9378L46.6529 122.19L40.3109 117.783L78.8912 200.964L77.3057 202.065L73.6062 203.718L68.8497 202.616L65.1503 200.964L60.3938 197.107L70.9637 229.608L65.1503 231.812L60.3938 234.566V239.524L54.5803 241.727L50.8808 243.931L40.3109 234.566L48.2383 261.008L52.9948 265.965L60.3938 269.822L68.3212 272.576L77.3057 274.228H84.7047L85.7617 286.347L87.3472 295.712V328.213L85.7617 349.697L81.5337 372.282L78.8912 383.85L75.7202 394.868L71.4922 406.987L68.8497 414.148M61.4508 416.902C61.4508 416.902 65.9603 415.223 68.8497 414.148M61.4508 416.902L68.8497 414.148" stroke="#EADAB5" stroke-width="0.5"/>
<path d="M157.637 571.695L137.554 575H118V1L136.497 16.975L146.01 32.9501L133.855 57.1881H137.554L184.591 41.7639L158.694 98.5029H137.554L152.881 103.461H157.109L162.394 106.215H169.793L177.72 113.927H184.062L189.347 122.19L195.689 117.783L157.109 200.964L158.694 202.065L162.394 203.718L167.15 202.616L170.85 200.964L175.606 197.107L165.036 229.608L170.85 231.812L175.606 234.566V239.524L181.42 241.727L185.119 243.931L195.689 234.566L187.762 261.008L183.005 265.965L175.606 269.822L167.679 272.576L158.694 274.228H151.295L150.238 286.347L148.653 295.712V328.213L150.238 349.697L154.466 372.282L157.109 383.85L160.28 394.868L164.508 406.987L167.15 414.148L174.549 416.902L180.363 419.656L189.347 414.148L184.591 441.14L183.005 444.996V449.403L190.933 459.319L198.332 466.48L207.845 475.294L216.301 486.311L220 494.574V537.541L217.886 542.499L207.845 552.415L195.689 560.127L180.363 565.635L157.637 571.695Z" fill="#F4E5BE"/>
<path d="M174.549 416.902L180.363 419.656L189.347 414.148L184.591 441.14L183.005 444.996V449.403L190.933 459.319L198.332 466.48L207.845 475.294L216.301 486.311L220 494.574V537.541L217.886 542.499L207.845 552.415L195.689 560.127L180.363 565.635L157.637 571.695L137.554 575H118V1L136.497 16.975L146.01 32.9501L133.855 57.1881H137.554L184.591 41.7639L158.694 98.5029H137.554L152.881 103.461H157.109L162.394 106.215H169.793L177.72 113.927H184.062L189.347 122.19L195.689 117.783L157.109 200.964L158.694 202.065L162.394 203.718L167.15 202.616L170.85 200.964L175.606 197.107L165.036 229.608L170.85 231.812L175.606 234.566V239.524L181.42 241.727L185.119 243.931L195.689 234.566L187.762 261.008L183.005 265.965L175.606 269.822L167.679 272.576L158.694 274.228H151.295L150.238 286.347L148.653 295.712V328.213L150.238 349.697L154.466 372.282L157.109 383.85L160.28 394.868L164.508 406.987L167.15 414.148M174.549 416.902C174.549 416.902 170.04 415.223 167.15 414.148M174.549 416.902L167.15 414.148" stroke="#F4E5BE" stroke-width="0.5"/>
</g>
<defs>
<filter id="filter0_d_325_108" x="0.75" y="0.453735" width="219.5" height="583.796" filterUnits="userSpaceOnUse" color-interpolation-filters="sRGB">
<feFlood flood-opacity="0" result="BackgroundImageFix"/>
<feColorMatrix in="SourceAlpha" type="matrix" values="0 0 0 0 0 0 0 0 0 0 0 0 0 0 0 0 0 0 127 0" result="hardAlpha"/>
<feOffset dx="-11" dy="5"/>
<feGaussianBlur stdDeviation="2"/>
<feComposite in2="hardAlpha" operator="out"/>
<feColorMatrix type="matrix" values="0 0 0 0 0 0 0 0 0 0 0 0 0 0 0 0 0 0 0.25 0"/>
<feBlend mode="normal" in2="BackgroundImageFix" result="effect1_dropShadow_325_108"/>
<feBlend mode="normal" in="SourceGraphic" in2="effect1_dropShadow_325_108" result="shape"/>
</filter>
</defs>
</svg>
