<svg width="335" height="305" viewBox="0 0 335 305" fill="none" xmlns="http://www.w3.org/2000/svg">
<g filter="url(#filter0_d_341_169)">
<path d="M14 125.5V214L126.5 296.5V195.5L70.25 157.5L14 119.5V125.5Z" fill="#BB744D"/>
<path d="M126.5 195.5V296.5L322.5 171.5V75.5L126.5 195.5Z" fill="#CE835B"/>
<path d="M14 119.5L70.25 157.5L126.5 195.5L322.5 75.5L266 40.75L209.5 6L14 119.5Z" fill="#EB9668"/>
<path d="M126.5 296.5L14 214V125.5V119.5M126.5 296.5V195.5M126.5 296.5L322.5 171.5V75.5M126.5 195.5L322.5 75.5M126.5 195.5L70.25 157.5M14 119.5L209.5 6L266 40.75M14 119.5L70.25 157.5M322.5 75.5L266 40.75M70.25 157.5L266 40.75" stroke="#BB744D"/>
</g>
<path d="M59.5071 175.786L61.074 176.789L59.1607 184.86L65.6884 179.742L67.2553 180.745L58.262 187.651L57.0035 186.845L59.5071 175.786ZM58.6619 175.245L60.2227 176.244L56.3925 182.854L54.758 185.408L52.9135 184.227L58.6619 175.245ZM66.5397 180.287L68.1067 181.29L62.3582 190.272L60.5075 189.088L62.142 186.534L66.5397 180.287ZM71.697 183.588L65.9485 192.57L64.104 191.389L69.8525 182.407L71.697 183.588ZM73.8624 194.322C73.965 194.161 74.0325 194.001 74.0647 193.842C74.1037 193.682 74.0937 193.507 74.0346 193.319C73.9782 193.126 73.869 192.903 73.7071 192.648C73.5453 192.394 73.3182 192.092 73.0258 191.743C72.7029 191.351 72.4111 190.955 72.1503 190.556C71.8937 190.16 71.6953 189.764 71.5552 189.367C71.4217 188.968 71.3683 188.572 71.3948 188.177C71.4254 187.785 71.5644 187.396 71.8118 187.009C72.0513 186.635 72.3507 186.348 72.71 186.149C73.0719 185.946 73.4706 185.83 73.9063 185.802C74.3445 185.769 74.8033 185.822 75.2827 185.961C75.7662 186.102 76.2506 186.328 76.7359 186.639C77.398 187.063 77.8995 187.552 78.2403 188.106C78.5812 188.66 78.7544 189.232 78.76 189.821C78.7697 190.413 78.6035 190.976 78.2613 191.511L76.423 190.334C76.5914 190.071 76.6833 189.805 76.6986 189.537C76.7206 189.267 76.6575 189.003 76.5091 188.746C76.3648 188.491 76.1261 188.257 75.793 188.044C75.4722 187.839 75.1733 187.717 74.8963 187.679C74.6219 187.637 74.3786 187.663 74.1664 187.76C73.9568 187.851 73.7875 187.998 73.6585 188.2C73.5611 188.352 73.51 188.513 73.505 188.684C73.5042 188.858 73.5457 189.046 73.6294 189.251C73.7131 189.455 73.8358 189.676 73.9973 189.912C74.1589 190.149 74.3567 190.406 74.5908 190.683C74.9854 191.145 75.3086 191.586 75.5603 192.008C75.8161 192.433 75.9958 192.841 76.0992 193.231C76.2027 193.622 76.2248 194.005 76.1654 194.378C76.106 194.752 75.9578 195.124 75.721 195.494C75.4709 195.884 75.1711 196.185 74.8215 196.396C74.4719 196.607 74.0848 196.728 73.66 196.757C73.2353 196.787 72.7879 196.73 72.3179 196.585C71.8479 196.441 71.3662 196.211 70.8726 195.895C70.4285 195.611 70.0273 195.273 69.6692 194.882C69.3137 194.486 69.0354 194.056 68.8344 193.591C68.6375 193.128 68.5526 192.645 68.5797 192.141C68.6069 191.636 68.7823 191.131 69.1061 190.625L70.9629 191.814C70.784 192.093 70.6758 192.358 70.6384 192.606C70.6011 192.855 70.6224 193.089 70.7024 193.308C70.7864 193.53 70.9203 193.737 71.1041 193.93C71.292 194.126 71.5175 194.308 71.7807 194.476C72.1015 194.682 72.3937 194.805 72.6572 194.846C72.9248 194.89 73.1593 194.863 73.3607 194.766C73.5662 194.671 73.7334 194.523 73.8624 194.322ZM82.5809 199.014L84.4254 200.195C84.0015 200.776 83.4914 201.206 82.8953 201.485C82.3032 201.767 81.6597 201.871 80.9649 201.798C80.2741 201.727 79.5606 201.455 78.8245 200.984C78.2487 200.616 77.7957 200.187 77.4656 199.697C77.138 199.204 76.9316 198.666 76.8462 198.083C76.7649 197.504 76.8097 196.895 76.9807 196.256C77.1516 195.618 77.4476 194.97 77.8687 194.312L78.2675 193.689C78.6886 193.031 79.1553 192.492 79.6676 192.072C80.1866 191.65 80.7283 191.356 81.2928 191.19C81.8613 191.026 82.4383 190.99 83.0238 191.08C83.6093 191.171 84.1837 191.397 84.7472 191.757C85.4957 192.236 86.0401 192.776 86.3805 193.376C86.7249 193.98 86.8864 194.61 86.8649 195.269C86.8474 195.93 86.6727 196.584 86.3407 197.229L84.49 196.045C84.7011 195.67 84.8252 195.317 84.8624 194.988C84.9022 194.654 84.8375 194.343 84.6682 194.055C84.5057 193.765 84.2188 193.489 83.8075 193.225C83.499 193.028 83.1928 192.913 82.8888 192.881C82.5848 192.849 82.2796 192.9 81.9733 193.034C81.667 193.169 81.3603 193.39 81.0532 193.698C80.7528 194.004 80.4499 194.396 80.1446 194.873L79.738 195.508C79.4405 195.973 79.2136 196.404 79.0571 196.803C78.9033 197.197 78.8208 197.562 78.8094 197.896C78.8048 198.23 78.8782 198.532 79.0295 198.802C79.1876 199.072 79.4312 199.312 79.7602 199.522C80.1468 199.77 80.505 199.912 80.8348 199.949C81.1646 199.986 81.473 199.926 81.7599 199.767C82.0509 199.612 82.3246 199.361 82.5809 199.014ZM32.8106 188.219L30.5219 186.755L31.4458 185.311L33.7345 186.776C34.0881 187.002 34.4129 187.129 34.7087 187.156C35.0071 187.179 35.2748 187.118 35.5119 186.974C35.7489 186.83 35.9517 186.627 36.1201 186.363C36.2912 186.096 36.399 185.814 36.4436 185.518C36.4882 185.222 36.4442 184.933 36.3116 184.651C36.179 184.369 35.9359 184.115 35.5822 183.889L33.9351 182.835L29.1144 190.367L27.2637 189.182L33.0122 180.2L36.51 182.439C37.2133 182.889 37.7342 183.402 38.0727 183.978C38.418 184.553 38.5822 185.148 38.5653 185.763C38.5483 186.378 38.3569 186.972 37.9911 187.543C37.6199 188.123 37.1652 188.54 36.6267 188.792C36.0883 189.045 35.4925 189.124 34.8392 189.031C34.1901 188.94 33.5139 188.669 32.8106 188.219ZM41.1552 185.412L44.505 187.556C45.1918 187.995 45.7162 188.476 46.0781 188.997C46.4441 189.521 46.6318 190.071 46.6412 190.645C46.6506 191.219 46.4671 191.8 46.0907 192.388C45.7827 192.869 45.436 193.23 45.0504 193.47C44.6715 193.709 44.2603 193.849 43.8168 193.889C43.38 193.929 42.9208 193.89 42.4392 193.773L41.6557 193.706L38.7439 191.843L39.6555 190.391L41.8208 191.777C42.1457 191.985 42.4519 192.1 42.7395 192.122C43.027 192.143 43.2901 192.086 43.5286 191.948C43.7712 191.814 43.9794 191.611 44.1531 191.339C44.3374 191.051 44.4432 190.768 44.4705 190.49C44.4978 190.212 44.438 189.948 44.2911 189.697C44.1442 189.447 43.9062 189.216 43.5772 189.006L42.0781 188.046L37.2575 195.578L35.4068 194.394L41.1552 185.412ZM40.4283 197.608L40.9426 192.293L42.906 193.533L42.4638 198.789L42.4086 198.875L40.4283 197.608ZM53.8871 199.595L53.6147 200.021C53.1777 200.704 52.693 201.257 52.1605 201.682C51.628 202.106 51.0707 202.401 50.4887 202.568C49.9093 202.731 49.3207 202.763 48.7229 202.664C48.1292 202.568 47.5486 202.339 46.981 201.975C46.4176 201.615 45.9659 201.184 45.6261 200.682C45.2903 200.183 45.0728 199.635 44.9736 199.038C44.8771 198.438 44.9079 197.805 45.0662 197.141C45.2285 196.48 45.5282 195.808 45.9651 195.125L46.2375 194.699C46.6771 194.013 47.1618 193.459 47.6917 193.039C48.2242 192.614 48.7814 192.319 49.3635 192.152C49.9496 191.988 50.5395 191.954 51.1332 192.05C51.731 192.149 52.3117 192.378 52.8751 192.739C53.4426 193.102 53.8943 193.533 54.2301 194.032C54.5699 194.534 54.7861 195.083 54.8785 195.682C54.9751 196.283 54.9422 196.914 54.7798 197.575C54.6242 198.235 54.3266 198.908 53.8871 199.595ZM51.7454 198.825L52.0258 198.387C52.3311 197.909 52.5564 197.462 52.7016 197.045C52.8469 196.628 52.9142 196.242 52.9035 195.887C52.8928 195.533 52.8056 195.216 52.6419 194.937C52.4809 194.655 52.2441 194.413 51.9315 194.213C51.6189 194.013 51.3005 193.899 50.9763 193.871C50.6588 193.842 50.3368 193.897 50.0102 194.036C49.6878 194.177 49.3676 194.401 49.0496 194.708C48.7316 195.014 48.4199 195.406 48.1146 195.883L47.8343 196.321C47.5316 196.794 47.3063 197.241 47.1584 197.663C47.0132 198.08 46.9446 198.468 46.9526 198.827C46.9633 199.181 47.0492 199.5 47.2103 199.783C47.3713 200.066 47.6081 200.307 47.9207 200.507C48.2332 200.707 48.5517 200.821 48.8759 200.849C49.2001 200.877 49.5235 200.82 49.8459 200.678C50.171 200.533 50.4925 200.307 50.8105 200C51.1311 199.689 51.4428 199.297 51.7454 198.825ZM57.6095 204.717L61.5931 198.492L63.4376 199.673L59.454 205.897C59.0697 206.498 58.6078 206.929 58.0682 207.193C57.5312 207.452 56.9608 207.551 56.3569 207.489C55.7571 207.43 55.1735 207.219 54.6059 206.855C54.0178 206.479 53.5607 206.047 53.2347 205.56C52.9086 205.073 52.7463 204.543 52.7478 203.97C52.7519 203.393 52.9553 202.79 53.358 202.161L55.2149 203.349C55.0043 203.678 54.8824 203.968 54.8492 204.22C54.8201 204.473 54.8656 204.697 54.9857 204.89C55.1058 205.082 55.2871 205.256 55.5298 205.412C55.7642 205.562 56.0033 205.637 56.2471 205.636C56.4909 205.636 56.7285 205.559 56.96 205.405C57.1956 205.255 57.412 205.025 57.6095 204.717ZM66.2194 212.079L65.2955 213.523L60.5146 210.463L61.4384 209.019L66.2194 212.079ZM66.8676 201.868L61.1191 210.85L59.2684 209.665L65.0169 200.683L66.8676 201.868ZM68.0797 207.8L67.1795 209.207L63.0216 206.546L63.9218 205.139L68.0797 207.8ZM71.0378 204.537L70.11 205.986L65.3352 202.931L66.263 201.481L71.0378 204.537ZM73.4887 214.566L75.3332 215.747C74.9093 216.328 74.3992 216.758 73.8031 217.037C73.211 217.319 72.5675 217.423 71.8727 217.349C71.1819 217.278 70.4684 217.007 69.7323 216.536C69.1565 216.168 68.7035 215.739 68.3734 215.249C68.0458 214.755 67.8394 214.217 67.754 213.635C67.6727 213.056 67.7176 212.447 67.8885 211.808C68.0594 211.17 68.3554 210.522 68.7766 209.863L69.1753 209.24C69.5965 208.582 70.0632 208.043 70.5754 207.623C71.0944 207.202 71.6362 206.908 72.2006 206.742C72.7691 206.578 73.3461 206.542 73.9316 206.632C74.5171 206.723 75.0915 206.948 75.655 207.309C76.4035 207.788 76.9479 208.328 77.2883 208.928C77.6327 209.531 77.7942 210.162 77.7727 210.821C77.7552 211.482 77.5805 212.136 77.2485 212.781L75.3979 211.597C75.6089 211.222 75.733 210.869 75.7702 210.539C75.81 210.205 75.7453 209.894 75.576 209.606C75.4135 209.317 75.1266 209.04 74.7153 208.777C74.4069 208.58 74.1006 208.465 73.7966 208.433C73.4926 208.401 73.1875 208.452 72.8811 208.586C72.5748 208.72 72.2681 208.942 71.961 209.249C71.6606 209.556 71.3577 209.947 71.0524 210.424L70.6458 211.06C70.3483 211.525 70.1214 211.956 69.965 212.355C69.8111 212.749 69.7286 213.113 69.7172 213.448C69.7126 213.781 69.786 214.083 69.9373 214.354C70.0954 214.624 70.339 214.863 70.668 215.074C71.0546 215.321 71.4128 215.464 71.7426 215.501C72.0725 215.538 72.3808 215.478 72.6677 215.319C72.9587 215.163 73.2324 214.912 73.4887 214.566ZM84.221 212.974L78.4725 221.956L76.628 220.775L82.3764 211.793L84.221 212.974ZM86.9847 214.743L86.0569 216.192L78.7281 211.502L79.6559 210.052L86.9847 214.743ZM88.3727 224.979C88.4754 224.819 88.5428 224.659 88.5751 224.5C88.6141 224.339 88.604 224.165 88.545 223.976C88.4885 223.783 88.3794 223.56 88.2175 223.306C88.0556 223.051 87.8285 222.749 87.5362 222.4C87.2133 222.008 86.9215 221.612 86.6607 221.214C86.4041 220.817 86.2057 220.421 86.0655 220.024C85.9321 219.626 85.8786 219.229 85.9051 218.834C85.9357 218.442 86.0747 218.053 86.3221 217.666C86.5617 217.292 86.8611 217.006 87.2203 216.807C87.5823 216.603 87.981 216.488 88.4166 216.459C88.8549 216.426 89.3137 216.48 89.7931 216.618C90.2765 216.76 90.7609 216.985 91.2462 217.296C91.9084 217.72 92.4099 218.209 92.7507 218.763C93.0916 219.318 93.2648 219.889 93.2704 220.479C93.2801 221.07 93.1139 221.633 92.7717 222.168L90.9333 220.992C91.1018 220.728 91.1937 220.462 91.209 220.194C91.231 219.924 91.1678 219.66 91.0195 219.403C90.8752 219.148 90.6365 218.915 90.3034 218.701C89.9826 218.496 89.6837 218.374 89.4066 218.336C89.1322 218.294 88.8889 218.321 88.6767 218.417C88.4671 218.509 88.2979 218.656 88.1689 218.857C88.0715 219.009 88.0203 219.171 88.0154 219.341C88.0146 219.515 88.056 219.704 88.1398 219.908C88.2235 220.112 88.3462 220.333 88.5077 220.57C88.6692 220.806 88.8671 221.063 89.1012 221.341C89.4958 221.802 89.819 222.244 90.0707 222.666C90.3265 223.09 90.5061 223.498 90.6096 223.889C90.7131 224.28 90.7351 224.662 90.6757 225.035C90.6164 225.409 90.4682 225.781 90.2313 226.151C89.9813 226.542 89.6815 226.843 89.3319 227.054C88.9823 227.265 88.5952 227.385 88.1704 227.415C87.7456 227.444 87.2983 227.387 86.8283 227.243C86.3583 227.098 85.8765 226.868 85.383 226.553C84.9388 226.268 84.5377 225.93 84.1796 225.539C83.8241 225.143 83.5458 224.713 83.3448 224.248C83.1479 223.786 83.063 223.302 83.0901 222.798C83.1173 222.294 83.2927 221.789 83.6164 221.283L85.4733 222.471C85.2943 222.751 85.1862 223.015 85.1488 223.263C85.1115 223.512 85.1328 223.746 85.2127 223.965C85.2968 224.187 85.4307 224.395 85.6145 224.588C85.8023 224.783 86.0279 224.965 86.2911 225.134C86.6119 225.339 86.904 225.462 87.1676 225.503C87.4352 225.547 87.6697 225.52 87.8711 225.423C88.0765 225.328 88.2438 225.18 88.3727 224.979Z" fill="#FF9E6A"/>
<path d="M223.276 178.518L221.171 179.848C220.864 179.349 220.633 178.898 220.478 178.495C220.326 178.083 220.248 177.674 220.246 177.267C220.249 176.858 220.314 176.412 220.441 175.931C220.554 175.537 220.641 175.174 220.701 174.843C220.762 174.512 220.778 174.202 220.749 173.912C220.716 173.617 220.613 173.332 220.439 173.057C220.238 172.737 220.021 172.504 219.79 172.358C219.561 172.202 219.315 172.13 219.053 172.142C218.796 172.15 218.525 172.244 218.239 172.425C218.002 172.575 217.815 172.766 217.677 172.999C217.536 173.227 217.466 173.487 217.466 173.78C217.471 174.069 217.579 174.386 217.789 174.73L215.394 176.243C214.935 175.478 214.715 174.747 214.736 174.048C214.759 173.341 214.976 172.691 215.388 172.1C215.797 171.503 216.351 170.984 217.05 170.543C217.82 170.056 218.561 169.765 219.271 169.671C219.978 169.571 220.63 169.671 221.228 169.971C221.822 170.266 222.337 170.757 222.771 171.445C223.074 171.924 223.249 172.41 223.299 172.902C223.344 173.389 223.317 173.888 223.216 174.399C223.115 174.909 222.99 175.45 222.842 176.02C222.706 176.499 222.677 176.929 222.756 177.311C222.841 177.688 223.014 178.091 223.276 178.518ZM222.535 182.556C222.312 182.203 222.249 181.835 222.345 181.451C222.438 181.061 222.688 180.738 223.095 180.481C223.497 180.227 223.894 180.142 224.285 180.226C224.679 180.3 224.987 180.514 225.21 180.866C225.425 181.207 225.484 181.575 225.386 181.968C225.293 182.357 225.046 182.679 224.644 182.933C224.237 183.19 223.837 183.277 223.445 183.193C223.054 183.11 222.75 182.897 222.535 182.556ZM231.698 173.199L229.593 174.529C229.286 174.03 229.055 173.579 228.9 173.176C228.748 172.764 228.67 172.355 228.668 171.949C228.671 171.539 228.736 171.093 228.863 170.612C228.976 170.218 229.063 169.855 229.123 169.524C229.184 169.193 229.2 168.883 229.171 168.593C229.138 168.298 229.035 168.013 228.861 167.738C228.66 167.418 228.443 167.185 228.212 167.039C227.983 166.883 227.737 166.811 227.475 166.823C227.218 166.831 226.947 166.925 226.661 167.106C226.424 167.256 226.237 167.447 226.099 167.68C225.958 167.908 225.888 168.168 225.888 168.461C225.893 168.75 226.001 169.067 226.211 169.412L223.816 170.924C223.357 170.159 223.137 169.428 223.158 168.729C223.181 168.022 223.398 167.372 223.81 166.781C224.219 166.184 224.773 165.665 225.472 165.224C226.242 164.737 226.983 164.446 227.693 164.352C228.4 164.252 229.052 164.352 229.65 164.652C230.244 164.947 230.759 165.438 231.193 166.126C231.496 166.605 231.671 167.091 231.721 167.583C231.766 168.07 231.739 168.569 231.638 169.08C231.537 169.59 231.412 170.131 231.264 170.701C231.128 171.18 231.099 171.61 231.178 171.992C231.263 172.369 231.436 172.772 231.698 173.199ZM230.957 177.237C230.734 176.885 230.671 176.516 230.767 176.132C230.86 175.743 231.11 175.419 231.517 175.162C231.919 174.908 232.316 174.823 232.707 174.907C233.101 174.982 233.409 175.195 233.632 175.547C233.847 175.889 233.906 176.256 233.808 176.649C233.715 177.039 233.468 177.36 233.066 177.614C232.659 177.871 232.259 177.958 231.867 177.874C231.476 177.791 231.172 177.578 230.957 177.237ZM240.12 167.88L238.015 169.21C237.708 168.711 237.477 168.26 237.322 167.857C237.17 167.445 237.092 167.036 237.09 166.63C237.093 166.22 237.158 165.774 237.285 165.293C237.398 164.899 237.485 164.536 237.545 164.205C237.606 163.874 237.622 163.564 237.593 163.274C237.56 162.979 237.457 162.694 237.283 162.419C237.082 162.1 236.865 161.867 236.634 161.72C236.405 161.564 236.159 161.492 235.897 161.504C235.64 161.512 235.369 161.607 235.083 161.787C234.846 161.937 234.659 162.128 234.521 162.361C234.38 162.589 234.31 162.849 234.309 163.142C234.315 163.431 234.423 163.748 234.633 164.093L232.238 165.605C231.779 164.84 231.559 164.109 231.58 163.41C231.603 162.703 231.82 162.053 232.232 161.462C232.641 160.865 233.195 160.346 233.894 159.905C234.664 159.418 235.405 159.127 236.115 159.033C236.822 158.933 237.474 159.033 238.072 159.333C238.666 159.628 239.181 160.119 239.615 160.807C239.918 161.286 240.093 161.772 240.143 162.265C240.188 162.752 240.161 163.25 240.06 163.761C239.959 164.271 239.834 164.812 239.686 165.383C239.55 165.861 239.521 166.292 239.6 166.673C239.685 167.051 239.858 167.453 240.12 167.88ZM239.379 171.918C239.156 171.566 239.093 171.197 239.189 170.813C239.282 170.424 239.532 170.1 239.939 169.843C240.341 169.589 240.738 169.504 241.129 169.588C241.523 169.663 241.831 169.876 242.054 170.228C242.269 170.57 242.328 170.937 242.23 171.33C242.137 171.72 241.89 172.041 241.488 172.295C241.081 172.552 240.681 172.639 240.289 172.555C239.898 172.472 239.594 172.259 239.379 171.918Z" fill="#FF9E6A"/>
<defs>
<filter id="filter0_d_341_169" x="0.5" y="0.417557" width="322.5" height="303.688" filterUnits="userSpaceOnUse" color-interpolation-filters="sRGB">
<feFlood flood-opacity="0" result="BackgroundImageFix"/>
<feColorMatrix in="SourceAlpha" type="matrix" values="0 0 0 0 0 0 0 0 0 0 0 0 0 0 0 0 0 0 127 0" result="hardAlpha"/>
<feOffset dx="-7" dy="1"/>
<feGaussianBlur stdDeviation="3"/>
<feComposite in2="hardAlpha" operator="out"/>
<feColorMatrix type="matrix" values="0 0 0 0 0 0 0 0 0 0 0 0 0 0 0 0 0 0 0.31 0"/>
<feBlend mode="normal" in2="BackgroundImageFix" result="effect1_dropShadow_341_169"/>
<feBlend mode="normal" in="SourceGraphic" in2="effect1_dropShadow_341_169" result="shape"/>
</filter>
</defs>
</svg>
