<svg width="364" height="557" viewBox="0 0 364 557" fill="none" xmlns="http://www.w3.org/2000/svg">
<g filter="url(#filter0_d_324_99)">
<path d="M75 503.5L94 506.5H112.5L111 1.5L89.5 18L97.5 36.5H94L64 48L58 68.5L74 62L94 74L79.5 78.5L75.5 80L64 84.5L56 88L50.5 91.5L45 95.5L43.5 99L75.5 167L74 168L70.5 169.5L68 171.5V193L62.5 195L58 197.5V202L52.5 204L49 206L46.5 209V221.5L51 226L58 229.5L65.5 232L74 233.5H81L82 244.5L83.5 253V282.5L82 302L78 322.5L75.5 333L72.5 343L68.5 354L66 360.5L59 363L53.5 365.5L49.5 370.5V385L51 388.5V392.5L43.5 401.5L36.5 408L27.5 416L19.5 426L16 433.5V472.5L18 477L27.5 486L39 493L53.5 498L75 503.5Z" fill="#EADAB5"/>
<path d="M59 363L53.5 365.5L49.5 370.5V385L51 388.5V392.5L43.5 401.5L36.5 408L27.5 416L19.5 426L16 433.5V472.5L18 477L27.5 486L39 493L53.5 498L75 503.5L94 506.5H112.5L111 1.5L89.5 18L97.5 36.5H94L64 48L58 68.5L74 62L94 74L79.5 78.5L75.5 80L64 84.5L56 88L50.5 91.5L45 95.5L43.5 99L75.5 167L74 168L70.5 169.5L68 171.5V193L62.5 195L58 197.5V202L52.5 204L49 206L46.5 209V221.5L51 226L58 229.5L65.5 232L74 233.5H81L82 244.5L83.5 253V282.5L82 302L78 322.5L75.5 333L72.5 343L68.5 354L66 360.5M59 363C59 363 63.2663 361.476 66 360.5M59 363L66 360.5" stroke="#EADAB5" stroke-width="1.1"/>
<path d="M150.5 503.5L131.5 506.5H113L112 2L124.5 19L142 30V36.5L131.5 32.5L120.5 35L131.5 36.5L162.5 48.5L164 71.5L151.5 63L131.5 74L146 78.5L150 80L161.5 84.5L169.5 88L175 91.5L180.5 95.5L182 99L150 167L151.5 168L155 169.5L157.5 171.5V193L163 195L167.5 197.5V202L173 204L176.5 206L179 209V221.5L174.5 226L167.5 229.5L160 232L151.5 233.5H144.5L143.5 244.5L142 253V282.5L143.5 302L147.5 322.5L150 333L153 343L157 354L159.5 360.5L166.5 363L172 365.5L176 370.5V385L174.5 388.5V392.5L182 401.5L189 408L198 416L206 426L209.5 433.5V472.5L207.5 477L198 486L186.5 493L172 498L150.5 503.5Z" fill="#F4E5BE"/>
<path d="M166.5 363L172 365.5L176 370.5V385L174.5 388.5V392.5L182 401.5L189 408L198 416L206 426L209.5 433.5V472.5L207.5 477L198 486L186.5 493L172 498L150.5 503.5L131.5 506.5H113L112 2L124.5 19L142 30V36.5L131.5 32.5L120.5 35L131.5 36.5L162.5 48.5L164 71.5L151.5 63L131.5 74L146 78.5L150 80L161.5 84.5L169.5 88L175 91.5L180.5 95.5L182 99L150 167L151.5 168L155 169.5L157.5 171.5V193L163 195L167.5 197.5V202L173 204L176.5 206L179 209V221.5L174.5 226L167.5 229.5L160 232L151.5 233.5H144.5L143.5 244.5L142 253V282.5L143.5 302L147.5 322.5L150 333L153 343L157 354L159.5 360.5M166.5 363C166.5 363 162.234 361.476 159.5 360.5M166.5 363L159.5 360.5" stroke="#F4E5BE" stroke-width="1.1"/>
<path d="M342.44 525.542L330.881 532.528L324.5 535.5L316.5 538.5L310 540.5L304 542L297 543.5L295 544L290.5 545L285.5 546L275.5 547.236H257L257.251 295.735L257.503 44.2334L258 43L258.5 42L268.057 43.498L278.109 48.4881V65.4545L270.57 58.9673L268.057 60.9634L272.58 73.9376L275.596 76.9317L285.145 83.9178L295.699 90.904V114.856L285.145 104.377L275.596 114.357L290.171 118.849L294.192 120.346L305.751 124.837L313.793 128.33L319.321 131.823L324.85 135.815L326.358 139.308L308.767 171.245L294.192 207.173L295.699 208.171L299.218 209.668L301.731 211.664V233.122L307.259 235.118L311.782 237.613V242.104L317.311 244.1L320.829 246.096L323.342 249.09V261.565L318.819 266.056L311.782 269.55L304.244 272.045L295.699 273.542H288.663L287.658 284.52L286.15 293.003V322.445L287.658 341.906L291.679 362.365L294.192 372.845L297.207 382.825L301.228 393.803L303.741 400.29L310.777 402.785L316.306 405.28L320.326 410.27V424.742L318.819 428.235V432.227L326.358 441.209L333.394 447.696L342.44 455.68L350.482 465.66L354 473.146V512.068L351.99 516.559L342.44 525.542Z" fill="#F4E5BE"/>
<path d="M310.777 402.785L316.306 405.28L320.326 410.27V424.742L318.819 428.235V432.227L326.358 441.209L333.394 447.696L342.44 455.68L350.482 465.66L354 473.146V512.068L351.99 516.559L342.44 525.542L330.881 532.528L324.5 535.5L316.5 538.5L310 540.5L304 542L297 543.5L295 544L290.5 545L285.5 546L275.5 547.236H257L257.251 295.735L257.503 44.2334L258 43L258.5 42L268.057 43.498L278.109 48.4881V65.4545L270.57 58.9673L268.057 60.9634L272.58 73.9376L275.596 76.9317L285.145 83.9178L295.699 90.904V114.856L285.145 104.377L275.596 114.357L290.171 118.849L294.192 120.346L305.751 124.837L313.793 128.33L319.321 131.823L324.85 135.815L326.358 139.308L308.767 171.245L294.192 207.173L295.699 208.171L299.218 209.668L301.731 211.664V233.122L307.259 235.118L311.782 237.613V242.104L317.311 244.1L320.829 246.096L323.342 249.09V261.565L318.819 266.056L311.782 269.55L304.244 272.045L295.699 273.542H288.663L287.658 284.52L286.15 293.003V322.445L287.658 341.906L291.679 362.365L294.192 372.845L297.207 382.825L301.228 393.803L303.741 400.29M310.777 402.785C310.777 402.785 306.489 401.265 303.741 400.29M310.777 402.785L303.741 400.29" stroke="#F4E5BE"/>
<path d="M219.694 544.494L238.5 547.239H257V44.5L247.549 58.5012L243.073 75.035L238.596 76.538L228.15 86.5586L218.699 76.538V99.0842L228.15 104.094L238.596 114.115L224.171 118.624L220.192 120.127L208.751 124.636L200.793 128.143L195.321 131.651L189.85 135.659L188.358 139.166L220.192 207.305L218.699 208.307L215.218 209.81L212.731 211.814V233.358L207.259 235.362L202.782 237.868V242.377L197.311 244.381L193.829 246.385L191.342 249.391V261.917L195.819 266.426L202.782 269.933L210.244 272.438L218.699 273.941H225.663L226.658 284.964L228.15 293.481V323.042L226.658 342.581L222.679 363.123L220.192 373.645L217.207 383.665L213.228 394.688L210.741 401.201L203.777 403.706L198.306 406.211L194.326 411.222V425.751L195.819 429.258V433.267L188.358 442.285L181.394 448.798L172.44 456.815L164.482 466.835L161 474.351V513.43L162.99 517.94L172.44 526.958L183.881 533.972L198.306 538.983L219.694 544.494Z" fill="#EADAB5"/>
<path d="M203.777 403.706L198.306 406.211L194.326 411.222V425.751L195.819 429.258V433.267L188.358 442.285L181.394 448.798L172.44 456.815L164.482 466.835L161 474.351V513.43L162.99 517.94L172.44 526.958L183.881 533.972L198.306 538.983L219.694 544.494L238.5 547.239H257V44.5L247.549 58.5012L243.073 75.035L238.596 76.538L228.15 86.5586L218.699 76.538V99.0842L228.15 104.094L238.596 114.115L224.171 118.624L220.192 120.127L208.751 124.636L200.793 128.143L195.321 131.651L189.85 135.659L188.358 139.166L220.192 207.305L218.699 208.307L215.218 209.81L212.731 211.814V233.358L207.259 235.362L202.782 237.868V242.377L197.311 244.381L193.829 246.385L191.342 249.391V261.917L195.819 266.426L202.782 269.933L210.244 272.438L218.699 273.941H225.663L226.658 284.964L228.15 293.481V323.042L226.658 342.581L222.679 363.123L220.192 373.645L217.207 383.665L213.228 394.688L210.741 401.201M203.777 403.706C203.777 403.706 208.021 402.18 210.741 401.201M203.777 403.706L210.741 401.201" stroke="#EADAB5"/>
</g>
<defs>
<filter id="filter0_d_324_99" x="0.450012" y="0.319031" width="354.05" height="556.42" filterUnits="userSpaceOnUse" color-interpolation-filters="sRGB">
<feFlood flood-opacity="0" result="BackgroundImageFix"/>
<feColorMatrix in="SourceAlpha" type="matrix" values="0 0 0 0 0 0 0 0 0 0 0 0 0 0 0 0 0 0 127 0" result="hardAlpha"/>
<feOffset dx="-11" dy="5"/>
<feGaussianBlur stdDeviation="2"/>
<feComposite in2="hardAlpha" operator="out"/>
<feColorMatrix type="matrix" values="0 0 0 0 0 0 0 0 0 0 0 0 0 0 0 0 0 0 0.25 0"/>
<feBlend mode="normal" in2="BackgroundImageFix" result="effect1_dropShadow_324_99"/>
<feBlend mode="normal" in="SourceGraphic" in2="effect1_dropShadow_324_99" result="shape"/>
</filter>
</defs>
</svg>
