<svg width="387" height="619" viewBox="0 0 387 619" fill="none" xmlns="http://www.w3.org/2000/svg">
<g filter="url(#filter0_d_319_70)">
<path d="M244.363 571.695L264.446 575H284V1L265.503 16.975L255.99 32.9501L268.145 57.1881H264.446L217.409 41.7639L243.306 98.5029H264.446L249.119 103.461H244.891L239.606 106.215H232.207L224.28 113.927H217.938L212.653 122.19L206.311 117.783L244.891 200.964L243.306 202.065L239.606 203.718L234.85 202.616L231.15 200.964L226.394 197.107L236.964 229.608L231.15 231.812L226.394 234.566V239.524L220.58 241.727L216.881 243.931L206.311 234.566L214.238 261.008L218.995 265.965L226.394 269.822L234.321 272.576L243.306 274.228H250.705L251.762 286.347L253.347 295.712V328.213L251.762 349.697L247.534 372.282L244.891 383.85L241.72 394.868L237.492 406.987L234.85 414.148L227.451 416.902L221.637 419.656L212.653 414.148L217.409 441.14L218.995 444.996V449.403L211.067 459.319L203.668 466.48L194.155 475.294L185.699 486.311L182 494.574V537.541L184.114 542.499L194.155 552.415L206.311 560.127L221.637 565.635L244.363 571.695Z" fill="#EADAB5"/>
<path d="M227.451 416.902L221.637 419.656L212.653 414.148L217.409 441.14L218.995 444.996V449.403L211.067 459.319L203.668 466.48L194.155 475.294L185.699 486.311L182 494.574V537.541L184.114 542.499L194.155 552.415L206.311 560.127L221.637 565.635L244.363 571.695L264.446 575H284V1L265.503 16.975L255.99 32.9501L268.145 57.1881H264.446L217.409 41.7639L243.306 98.5029H264.446L249.119 103.461H244.891L239.606 106.215H232.207L224.28 113.927H217.938L212.653 122.19L206.311 117.783L244.891 200.964L243.306 202.065L239.606 203.718L234.85 202.616L231.15 200.964L226.394 197.107L236.964 229.608L231.15 231.812L226.394 234.566V239.524L220.58 241.727L216.881 243.931L206.311 234.566L214.238 261.008L218.995 265.965L226.394 269.822L234.321 272.576L243.306 274.228H250.705L251.762 286.347L253.347 295.712V328.213L251.762 349.697L247.534 372.282L244.891 383.85L241.72 394.868L237.492 406.987L234.85 414.148M227.451 416.902C227.451 416.902 231.96 415.223 234.85 414.148M227.451 416.902L234.85 414.148" stroke="#EADAB5" stroke-width="0.3"/>
<path d="M323.637 571.695L303.554 575H284V1L302.497 16.975L312.01 32.9501L299.855 57.1881H303.554L350.591 41.7639L324.694 98.5029H303.554L318.881 103.461H323.109L328.394 106.215H335.793L343.72 113.927H350.062L355.347 122.19L361.689 117.783L323.109 200.964L324.694 202.065L328.394 203.718L333.15 202.616L336.85 200.964L341.606 197.107L331.036 229.608L336.85 231.812L341.606 234.566V239.524L347.42 241.727L351.119 243.931L361.689 234.566L353.762 261.008L349.005 265.965L341.606 269.822L333.679 272.576L324.694 274.228H317.295L316.238 286.347L314.653 295.712V328.213L316.238 349.697L320.466 372.282L323.109 383.85L326.28 394.868L330.508 406.987L333.15 414.148L340.549 416.902L346.363 419.656L355.347 414.148L350.591 441.14L349.005 444.996V449.403L356.933 459.319L364.332 466.48L373.845 475.294L382.301 486.311L386 494.574V537.541L383.886 542.499L373.845 552.415L361.689 560.127L346.363 565.635L323.637 571.695Z" fill="#F4E5BE"/>
<path d="M340.549 416.902L346.363 419.656L355.347 414.148L350.591 441.14L349.005 444.996V449.403L356.933 459.319L364.332 466.48L373.845 475.294L382.301 486.311L386 494.574V537.541L383.886 542.499L373.845 552.415L361.689 560.127L346.363 565.635L323.637 571.695L303.554 575H284V1L302.497 16.975L312.01 32.9501L299.855 57.1881H303.554L350.591 41.7639L324.694 98.5029H303.554L318.881 103.461H323.109L328.394 106.215H335.793L343.72 113.927H350.062L355.347 122.19L361.689 117.783L323.109 200.964L324.694 202.065L328.394 203.718L333.15 202.616L336.85 200.964L341.606 197.107L331.036 229.608L336.85 231.812L341.606 234.566V239.524L347.42 241.727L351.119 243.931L361.689 234.566L353.762 261.008L349.005 265.965L341.606 269.822L333.679 272.576L324.694 274.228H317.295L316.238 286.347L314.653 295.712V328.213L316.238 349.697L320.466 372.282L323.109 383.85L326.28 394.868L330.508 406.987L333.15 414.148M340.549 416.902C340.549 416.902 336.04 415.223 333.15 414.148M340.549 416.902L333.15 414.148" stroke="#F4E5BE" stroke-width="0.3"/>
<path d="M118.5 608.5L139.5 609H141.5V596V74H139L135.5 74.5L132.5 75.5L129.5 77L127.5 79L126 81.5L125.5 85V89.5L126 92.5L127.5 95L130 97.5L131 98.5L130.5 99L125 101L120 103.5L115 107.5L110 112.5L107 117L104.5 122H99.5L92.5 120.5L87.5 123L84.5 122H80.5L73.5 120.5L66.5 117L57.5 120.5L76 134L80.5 138L83.5 141.5L88 147.5L92.5 154.5L94.5 158.5L96.5 167.5L97.5 174.5L98 180.5L97.5 184.5L95 185.5L92.5 188V190.5L95 193.5L97.5 195.5L96.5 198.5V203.5L97.5 206L90 206.5L87 207.5L85 209V212L86 215.5L87 219L87.5 222H86L82 222.5L69 232L79 239L85.5 244.5L96.5 246.5L101 248L102.5 250.5L103.5 253L101 256L104.5 282.5L107 296V351V356.5L104.5 371.5L101 389L97 404.5L91.5 422L87 435L81 447L78.5 452.5L79 454.5L82.5 459H67.5V461.5L68.5 464.5L70.5 468.5L71.5 473.5V479L69.5 485.5L64.5 494L59.5 501L48.5 511.5L36.5 524L32.5 529.5L31.5 534.5V543L32.5 547L36.5 551.5L38.5 555.5L38 557.5L36.5 559L17.5 570L16 571.5V574L23.5 583.5L35 596L45 600.5L58 604L86.5 607L118.5 608.5Z" fill="#EADAB5" stroke="#EADAB5"/>
<path d="M164.5 608.5L143.5 609H141.5V596V74H144L147.5 74.5L150.5 75.5L153.5 77L155.5 79L157 81.5L157.5 85V89.5L157 92.5L155.5 95L153 97.5L152 98.5L152.5 99L158 101L163 103.5L168 107.5L173 112.5L176 117L178.5 122H183.5L190.5 120.5L195.5 123L198.5 122H202.5L209.5 120.5L216.5 117L225.5 120.5L207 134L202.5 138L199.5 141.5L195 147.5L190.5 154.5L188.5 158.5L186.5 167.5L185.5 174.5L185 180.5L185.5 184.5L188 185.5L190.5 188V190.5L188 193.5L185.5 195.5L186.5 198.5V203.5L185.5 206L193 206.5L196 207.5L198 209V212L197 215.5L196 219L195.5 222H197L201 222.5L214 232L204 239L197.5 244.5L186.5 246.5L182 248L180.5 250.5L179.5 253L182 256L178.5 282.5L176 296V351V356.5L178.5 371.5L182 389L186 404.5L191.5 422L196 435L202 447L204.5 452.5L204 454.5L200.5 459H215.5V461.5L214.5 464.5L212.5 468.5L211.5 473.5V479L213.5 485.5L218.5 494L223.5 501L234.5 511.5L246.5 524L250.5 529.5L251.5 534.5V543L250.5 547L246.5 551.5L244.5 555.5L245 557.5L246.5 559L265.5 570L267 571.5V574L259.5 583.5L248 596L238 600.5L225 604L196.5 607L164.5 608.5Z" fill="#F4E5BE" stroke="#F4E5BE"/>
</g>
<defs>
<filter id="filter0_d_319_70" x="0.5" y="0.672257" width="385.65" height="617.828" filterUnits="userSpaceOnUse" color-interpolation-filters="sRGB">
<feFlood flood-opacity="0" result="BackgroundImageFix"/>
<feColorMatrix in="SourceAlpha" type="matrix" values="0 0 0 0 0 0 0 0 0 0 0 0 0 0 0 0 0 0 127 0" result="hardAlpha"/>
<feOffset dx="-11" dy="5"/>
<feGaussianBlur stdDeviation="2"/>
<feComposite in2="hardAlpha" operator="out"/>
<feColorMatrix type="matrix" values="0 0 0 0 0 0 0 0 0 0 0 0 0 0 0 0 0 0 0.25 0"/>
<feBlend mode="normal" in2="BackgroundImageFix" result="effect1_dropShadow_319_70"/>
<feBlend mode="normal" in="SourceGraphic" in2="effect1_dropShadow_319_70" result="shape"/>
</filter>
</defs>
</svg>
